<mxfile host="65bd71144e">
    <diagram id="wyL3mfxtN8zwGBZ-Xc9p" name="Page-1">
        <mxGraphModel dx="846" dy="738" grid="1" gridSize="10" guides="1" tooltips="1" connect="1" arrows="1" fold="1" page="1" pageScale="1" pageWidth="1169" pageHeight="827" background="#ffffff" math="0" shadow="1">
            <root>
                <mxCell id="0"/>
                <mxCell id="1" parent="0"/>
                <mxCell id="16" value="" style="rounded=1;whiteSpace=wrap;html=1;fillColor=none;strokeColor=#10739e;" vertex="1" parent="1">
                    <mxGeometry x="30" y="244" width="703.41" height="206" as="geometry"/>
                </mxCell>
                <mxCell id="2" value="" style="shape=image;verticalLabelPosition=bottom;labelBackgroundColor=#ffffff;verticalAlign=top;aspect=fixed;imageAspect=0;image=data:image/svg+xml,PHN2ZyB4bWxucz0iaHR0cDovL3d3dy53My5vcmcvMjAwMC9zdmciIHdpZHRoPSIxOTEiIGhlaWdodD0iMzIiIHZpZXdCb3g9IjAgMCAxOTEgMzIiIGZpbGw9Im5vbmUiPgo8cGF0aCBmaWxsLXJ1bGU9ImV2ZW5vZGQiIGNsaXAtcnVsZT0iZXZlbm9kZCIgZD0iTTE2LjA5NzkgMzJWMjUuODAzNkMyMi43MTI5IDI1LjgwMzYgMjcuNzk4NSAxOS4zMDMyIDI1LjI3NDggMTIuMzg0NUMyNC4zNTcxIDkuODM3NTYgMjIuMjkyMyA3Ljc4NDc4IDE5LjczMDQgNi44NzI0M0MxMi43NzEzIDQuMzYzNDcgNi4yMzI2OCA5LjQ1NzQxIDYuMjMyNjggMTUuOTk1OUgwQzAgNS41NDE5MiAxMC4xNzExIC0yLjYzMTE5IDIxLjE4MzUgMC43OTAxMTJDMjYuMDAxMyAyLjI3MjY4IDI5LjgyNTEgNi4xMTIxNCAzMS4zNTQ2IDEwLjkwMkMzNC43OTU5IDIxLjg4ODEgMjYuNjEzMSAzMiAxNi4wOTc5IDMyWiIgZmlsbD0iIzAwNjlGRiIvPgo8cGF0aCBmaWxsLXJ1bGU9ImV2ZW5vZGQiIGNsaXAtcnVsZT0iZXZlbm9kZCIgZD0iTTE2LjA5NjggMjUuODQxNUg5LjkwMjM0VjE5LjY4MzFIMTYuMDk2OFYyNS44NDE1WiIgZmlsbD0iIzAwNjlGRiIvPgo8cGF0aCBmaWxsLXJ1bGU9ImV2ZW5vZGQiIGNsaXAtcnVsZT0iZXZlbm9kZCIgZD0iTTkuOTAyNzEgMzAuNTkzNEg1LjEyMzA1VjI1Ljg0MTZIOS45MDI3MVYzMC41OTM0WiIgZmlsbD0iIzAwNjlGRiIvPgo8cGF0aCBmaWxsLXJ1bGU9ImV2ZW5vZGQiIGNsaXAtcnVsZT0iZXZlbm9kZCIgZD0iTTUuMTI0MjkgMjUuODQxN0gxLjEwOTM4VjIxLjg4ODJINS4wODYwNVYyNS44NDE3SDUuMTI0MjlaIiBmaWxsPSIjMDA2OUZGIi8+CjxwYXRoIGZpbGwtcnVsZT0iZXZlbm9kZCIgY2xpcC1ydWxlPSJldmVub2RkIiBkPSJNNTcuMjQyMyA5LjMwNTI3QzU1LjQwNjkgOC4wNTA3OSA1My4xMTI3IDcuNDA0NTQgNTAuNDM2MSA3LjQwNDU0SDQ0LjYyNFYyNS44MDM1SDUwLjQzNjFDNTMuMTEyNyAyNS44MDM1IDU1LjQwNjkgMjUuMTE5MyA1Ny4yNDIzIDIzLjc4ODhDNTguMjM2NSAyMy4wNjY1IDU5LjAzOTUgMjIuMDc4MSA1OS41NzQ4IDIwLjgyMzdDNjAuMTEwMSAxOS41NjkyIDYwLjQxNiAxOC4xMjQ2IDYwLjQxNiAxNi40OUM2MC40MTYgMTQuODU1NCA2MC4xNDg0IDEzLjQxMDggNTkuNTc0OCAxMi4xOTQ0QzU5LjAzOTUgMTAuOTM5OSA1OC4yNzQ3IDkuOTUxNTEgNTcuMjQyMyA5LjMwNTI3Wk00OC4wMjg4IDEwLjQ4MzhINDkuODY0MkM1MS44OTA4IDEwLjQ4MzggNTMuNTczMyAxMC44NjQgNTQuODM1MSAxMS42NjIzQzU2LjI0OTkgMTIuNDk4NiA1Ni45NzY0IDE0LjEzMzIgNTYuOTc2NCAxNi40NTIxQzU2Ljk3NjQgMTguODQ3IDU2LjI0OTkgMjAuNTE5NyA1NC44MzUxIDIxLjQzMkM1My42MTE1IDIyLjIzMDMgNTEuOTY3MyAyMi42NDg1IDQ5LjkwMjUgMjIuNjQ4NUg0OC4wNjcxVjEwLjQ4MzhINDguMDI4OFoiIGZpbGw9IiMwMDY5RkYiLz4KPHBhdGggZmlsbC1ydWxlPSJldmVub2RkIiBjbGlwLXJ1bGU9ImV2ZW5vZGQiIGQ9Ik02NC41MDggNy4xMzg0M0M2My45MzQ1IDcuMTM4NDMgNjMuNDc1NiA3LjMyODUgNjMuMDkzMiA3LjcwODY0QzYyLjcxMDkgOC4wODg3OSA2Mi40ODE0IDguNTQ0OTYgNjIuNDgxNCA5LjExNTE4QzYyLjQ4MTQgOS42ODU0IDYyLjY3MjYgMTAuMTQxNiA2My4wNTUgMTAuNTU5N0M2My40Mzc0IDEwLjkzOTkgNjMuOTM0NSAxMS4xMjk5IDY0LjUwOCAxMS4xMjk5QzY1LjA4MTYgMTEuMTI5OSA2NS41NDA0IDEwLjkzOTkgNjUuOTYxIDEwLjU1OTdDNjYuMzQzNCAxMC4xNzk2IDY2LjUzNDYgOS42ODU0IDY2LjUzNDYgOS4xMTUxOEM2Ni41MzQ2IDguNTQ0OTYgNjYuMzQzNCA4LjA4ODc5IDY1Ljk2MSA3LjcwODY0QzY1LjU0MDQgNy4zNjY1MSA2NS4wNDMzIDcuMTM4NDMgNjQuNTA4IDcuMTM4NDNaIiBmaWxsPSIjMDA2OUZGIi8+CjxyZWN0IHg9IjYyLjgyNTIiIHk9IjEyLjgwMjUiIHdpZHRoPSIzLjI4ODQxIiBoZWlnaHQ9IjEyLjk2MjkiIGZpbGw9IiMwMDY5RkYiLz4KPHBhdGggZmlsbC1ydWxlPSJldmVub2RkIiBjbGlwLXJ1bGU9ImV2ZW5vZGQiIGQ9Ik03OC4wMDI1IDEzLjkwNDlDNzcuMDA4NCAxMy4wMzA2IDc1Ljg5OTUgMTIuNTM2NCA3NC43MTQxIDEyLjUzNjRDNzIuOTE3IDEyLjUzNjQgNzEuMzg3NSAxMy4xNDQ2IDcwLjI0MDQgMTQuMzk5MUM2OS4wNTUgMTUuNjE1NiA2OC40ODE0IDE3LjE3NDEgNjguNDgxNCAxOS4wMzY5QzY4LjQ4MTQgMjAuODYxNSA2OS4wNTUgMjIuNDIwMSA3MC4yMDIxIDIzLjY3NDZDNzEuMzQ5MiAyNC44OTExIDcyLjg3ODcgMjUuNDk5MyA3NC42NzU5IDI1LjQ5OTNDNzUuOTM3NyAyNS40OTkzIDc3LjAwODQgMjUuMTU3MiA3Ny45MjYxIDI0LjQ3MjlWMjQuNzc3Qzc3LjkyNjEgMjUuODQxNCA3Ny42MjAyIDI2LjY3NzggNzcuMDg0OCAyNy4yNDhDNzYuNTExMyAyNy44MTgyIDc1LjcwODMgMjguMTIyMyA3NC43NTI0IDI4LjEyMjNDNzMuMjIyOSAyOC4xMjIzIDcyLjMwNTIgMjcuNTE0MSA3MS4xMTk4IDI1Ljk5MzVMNjguOTAyMSAyOC4xMjIzTDY4Ljk3ODUgMjguMTk4M0M2OS40NzU2IDI4Ljg4MjYgNzAuMjAyMSAyOS41Mjg5IDcxLjE1ODEgMzAuMTM3MUM3Mi4xMTQgMzAuNzQ1MyA3My4zNzU4IDMxLjA4NzQgNzQuNzkwNiAzMS4wODc0Qzc2Ljc0MDcgMzEuMDg3NCA3OC4zMDg0IDMwLjQ3OTIgNzkuNDU1NSAyOS4zMDA4QzgwLjYwMjcgMjguMTIyMyA4MS4yMTQ1IDI2LjUyNTcgODEuMjE0NSAyNC41ODdWMTIuODAyNUg3OC4wMDI1VjEzLjkwNDlaTTc3LjEyMzkgMjEuNTQ1OUM3Ni41NTAzIDIyLjE5MjIgNzUuODIzOCAyMi40OTYzIDc0Ljg2NzkgMjIuNDk2M0M3My45MTE5IDIyLjQ5NjMgNzMuMTg1NCAyMi4xOTIyIDcyLjY1MDEgMjEuNTQ1OUM3Mi4wNzY1IDIwLjg5OTcgNzEuODA4OSAyMC4wNjM0IDcxLjgwODkgMTguOTk5QzcxLjgwODkgMTcuOTM0NSA3Mi4wNzY1IDE3LjA5ODIgNzIuNjUwMSAxNi40NTJDNzMuMjIzNyAxNS44MDU3IDczLjk1MDIgMTUuNTAxNiA3NC44Njc5IDE1LjUwMTZDNzUuODIzOCAxNS41MDE2IDc2LjU1MDMgMTUuODA1NyA3Ny4xMjM5IDE2LjQ1MkM3Ny42OTc0IDE3LjA5ODIgNzcuOTY1MSAxNy45NzI2IDc3Ljk2NTEgMTguOTk5Qzc4LjAwMzMgMjAuMDYzNCA3Ny42OTc0IDIwLjg5OTcgNzcuMTIzOSAyMS41NDU5WiIgZmlsbD0iIzAwNjlGRiIvPgo8cmVjdCB4PSI4NC4wMDY4IiB5PSIxMi44MDI1IiB3aWR0aD0iMy4yODg0MSIgaGVpZ2h0PSIxMi45NjI5IiBmaWxsPSIjMDA2OUZGIi8+CjxwYXRoIGZpbGwtcnVsZT0iZXZlbm9kZCIgY2xpcC1ydWxlPSJldmVub2RkIiBkPSJNODUuNjkxNiA3LjEzODQzQzg1LjExODEgNy4xMzg0MyA4NC42NTkyIDcuMzI4NSA4NC4yNzY4IDcuNzA4NjRDODMuODk0NSA4LjA4ODc5IDgzLjY2NSA4LjU0NDk2IDgzLjY2NSA5LjExNTE4QzgzLjY2NSA5LjY4NTQgODMuODU2MiAxMC4xNDE2IDg0LjIzODYgMTAuNTU5N0M4NC42MjEgMTAuOTM5OSA4NS4xMTgxIDExLjEyOTkgODUuNjkxNiAxMS4xMjk5Qzg2LjI2NTIgMTEuMTI5OSA4Ni43MjQgMTAuOTM5OSA4Ny4xNDQ2IDEwLjU1OTdDODcuNTI3IDEwLjE3OTYgODcuNzE4MiA5LjY4NTQgODcuNzE4MiA5LjExNTE4Qzg3LjcxODIgOC41NDQ5NiA4Ny41MjcgOC4wODg3OSA4Ny4xNDQ2IDcuNzA4NjRDODYuNzI0IDcuMzY2NTEgODYuMjY1MiA3LjEzODQzIDg1LjY5MTYgNy4xMzg0M1oiIGZpbGw9IiMwMDY5RkYiLz4KPHBhdGggZmlsbC1ydWxlPSJldmVub2RkIiBjbGlwLXJ1bGU9ImV2ZW5vZGQiIGQ9Ik05NC40ODUgOS4zMDUxOEg5MS4yNzNWMTIuODAyNUg4OS4zOTk0VjE1Ljc2NzZIOTEuMjczVjIxLjEyNzdDOTEuMjczIDIyLjgwMDMgOTEuNjE3MiAyNC4wMTY4IDkyLjI2NzIgMjQuNzAxQzkyLjk1NTUgMjUuMzg1MyA5NC4xNDA4IDI1Ljc2NTQgOTUuNzg1IDI1Ljc2NTRDOTYuMzIwNCAyNS43NjU0IDk2Ljg1NTcgMjUuNzY1NCA5Ny4zOTEgMjUuNzI3NEg5Ny41NDRWMjIuNzYyM0w5Ni40MzUxIDIyLjgzODNDOTUuNjcwMyAyMi44MzgzIDk1LjEzNSAyMi42ODYzIDk0Ljg2NzMgMjIuNDIwMkM5NC41OTk3IDIyLjE1NDEgOTQuNDg1IDIxLjU4MzkgOTQuNDg1IDIwLjcwOTVWMTUuODA1N0g5Ny41NDRWMTIuODQwNUg5NC40ODVWOS4zMDUxOFoiIGZpbGw9IiMwMDY5RkYiLz4KPHBhdGggZmlsbC1ydWxlPSJldmVub2RkIiBjbGlwLXJ1bGU9ImV2ZW5vZGQiIGQ9Ik0xMTIuOTE1IDcuMzY2NDZIMTE2LjIwM1YyNS43NjU1SDExMi45MTVWNy4zNjY0NloiIGZpbGw9IiMwMDY5RkYiLz4KPHBhdGggZmlsbC1ydWxlPSJldmVub2RkIiBjbGlwLXJ1bGU9ImV2ZW5vZGQiIGQ9Ik0xNDkuMjc5IDIxLjEyNzdDMTQ4LjcwNSAyMS43NzM5IDE0OC4wOTMgMjIuMzQ0MSAxNDcuNjM0IDIyLjY0ODJDMTQ3LjE3NiAyMi45NTIzIDE0Ni42MDIgMjMuMDY2NCAxNDUuOTUyIDIzLjA2NjRDMTQ0Ljk5NiAyMy4wNjY0IDE0NC4xOTMgMjIuNzI0MyAxNDMuNTgxIDIyLjAwMkMxNDIuOTY5IDIxLjI3OTcgMTQyLjYyNSAyMC4zNjc0IDE0Mi42MjUgMTkuMjY0OUMxNDIuNjI1IDE4LjE2MjUgMTQyLjkzMSAxNy4yNTAyIDE0My41NDMgMTYuNTI3OUMxNDQuMTU1IDE1LjgwNTYgMTQ0Ljk1OCAxNS40NjM1IDE0NS45MTQgMTUuNDYzNUMxNDYuOTg0IDE1LjQ2MzUgMTQ4LjA5MyAxNi4xMDk3IDE0OS4wNDkgMTcuMjUwMkwxNTEuMjI5IDE1LjE5NzRDMTQ5LjgxNCAxMy4zNzI3IDE0OC4wMTcgMTIuNTM2NCAxNDUuODc1IDEyLjUzNjRDMTQ0LjA3OCAxMi41MzY0IDE0Mi41MTEgMTMuMTgyNiAxNDEuMjQ5IDE0LjQ3NTFDMTM5Ljk4NyAxNS43Njc2IDEzOS4zMzcgMTcuMzY0MiAxMzkuMzM3IDE5LjMwM0MxMzkuMzM3IDIxLjI0MTcgMTM5Ljk4NyAyMi44NzYzIDE0MS4yNDkgMjQuMTMwOEMxNDIuNTExIDI1LjQyMzMgMTQ0LjA3OCAyNi4wNjk1IDE0NS44NzUgMjYuMDY5NUMxNDguMjQ2IDI2LjA2OTUgMTUwLjE1OCAyNS4wNDMxIDE1MS40NTggMjMuMTgwNEwxNDkuMjc5IDIxLjEyNzdaIiBmaWxsPSIjMDA2OUZGIi8+CjxwYXRoIGZpbGwtcnVsZT0iZXZlbm9kZCIgY2xpcC1ydWxlPSJldmVub2RkIiBkPSJNMTYyLjczOCAxNC42MjczQzE2Mi4yNzkgMTMuOTgxMSAxNjEuNjI5IDEzLjQ0ODkgMTYwLjg2NCAxMy4wNjg4QzE2MC4wOTkgMTIuNjg4NiAxNTkuMTgxIDEyLjQ5ODUgMTU4LjE0OSAxMi40OTg1QzE1Ni4zMTQgMTIuNDk4NSAxNTQuODIyIDEzLjE4MjggMTUzLjcxNCAxNC40NzUzQzE1Mi42MDUgMTUuODA1OCAxNTIuMDY5IDE3LjQ0MDQgMTUyLjA2OSAxOS4zNDExQzE1Mi4wNjkgMjEuMzE3OSAxNTIuNjgxIDIyLjkxNDUgMTUzLjg2NiAyNC4xNjlDMTU1LjA1MiAyNS4zODU0IDE1Ni42NTggMjYuMDMxNyAxNTguNjA4IDI2LjAzMTdDMTYwLjgyNiAyNi4wMzE3IDE2Mi42MjMgMjUuMTU3NCAxNjMuOTk5IDIzLjQwODdMMTY0LjA3NiAyMy4zMzI3TDE2MS45MzUgMjEuMjc5OUMxNjEuNzQzIDIxLjUwOCAxNjEuNDM3IDIxLjc3NDEgMTYxLjIwOCAyMi4wNDAyQzE2MC45MDIgMjIuMzQ0MyAxNjAuNTk2IDIyLjU3MjQgMTYwLjI1MiAyMi43MjQ0QzE1OS43NTUgMjIuOTUyNSAxNTkuMjIgMjMuMTA0NiAxNTguNjA4IDIzLjEwNDZDMTU3LjY5IDIzLjEwNDYgMTU2Ljk2NCAyMi44Mzg1IDE1Ni4zOSAyMi4zMDYzQzE1NS44NTUgMjEuODEyMSAxNTUuNTQ5IDIxLjE2NTggMTU1LjQ3MiAyMC4zMjk1SDE2NC4xNTJMMTY0LjE5MSAxOS4xNTExQzE2NC4xOTEgMTguMzE0OCAxNjQuMDc2IDE3LjUxNjQgMTYzLjg0NiAxNi43NTYyQzE2My41NDEgMTUuOTU3OSAxNjMuMTk2IDE1LjI3MzYgMTYyLjczOCAxNC42MjczWk0xNTUuNTg4IDE3LjY2ODZDMTU1Ljc0MSAxNy4wNjA0IDE1Ni4wNDYgMTYuNTI4MiAxNTYuNDI5IDE2LjE0OEMxNTYuODg4IDE1LjcyOTkgMTU3LjQ2MSAxNS41MDE4IDE1OC4xNSAxNS41MDE4QzE1OC45NTMgMTUuNTAxOCAxNTkuNTY0IDE1LjcyOTkgMTU5Ljk4NSAxNi4xODYxQzE2MC4zNjcgMTYuNjA0MiAxNjAuNTk3IDE3LjA5ODQgMTYwLjYzNSAxNy43MDY2SDE1NS41ODhWMTcuNjY4NloiIGZpbGw9IiMwMDY5RkYiLz4KPHBhdGggZmlsbC1ydWxlPSJldmVub2RkIiBjbGlwLXJ1bGU9ImV2ZW5vZGQiIGQ9Ik0xNzUuMzE5IDEzLjc5MDlDMTc0LjMyNSAxMi45NTQ1IDE3Mi45NDkgMTIuNTM2NCAxNzEuMjI4IDEyLjUzNjRDMTcwLjExOSAxMi41MzY0IDE2OS4xMjUgMTIuNzY0NSAxNjguMjA3IDEzLjIyMDZDMTY3LjM2NiAxMy42Mzg4IDE2Ni41MjUgMTQuMzYxMSAxNjUuOTg5IDE1LjMxMTRMMTY2LjAyOCAxNS4zNDk0TDE2OC4xMzEgMTcuMzY0MkMxNjkuMDEgMTUuOTk1NyAxNjkuOTY2IDE1LjUwMTUgMTcxLjIyOCAxNS41MDE1QzE3MS45MTYgMTUuNTAxNSAxNzIuNDkgMTUuNjkxNiAxNzIuOTEgMTYuMDMzN0MxNzMuMzMxIDE2LjM3NTggMTczLjU2IDE2LjgzMiAxNzMuNTYgMTcuNDQwMlYxOC4wODY1QzE3Mi43NTcgMTcuODU4NCAxNzEuOTU0IDE3LjcwNjMgMTcxLjE1MSAxNy43MDYzQzE2OS41MDcgMTcuNzA2MyAxNjguMjA3IDE4LjA4NjUgMTY3LjIxMyAxOC44NDY4QzE2Ni4yMTkgMTkuNjA3MSAxNjUuNzIyIDIwLjcwOTUgMTY1LjcyMiAyMi4wNzhDMTY1LjcyMiAyMy4yOTQ1IDE2Ni4xNDIgMjQuMjgyOSAxNjYuOTg0IDI1LjAwNTFDMTY3LjgyNSAyNS43Mjc0IDE2OC44OTUgMjYuMDY5NSAxNzAuMTU3IDI2LjA2OTVDMTcxLjQxOSAyNi4wNjk1IDE3Mi41NjYgMjUuNTc1MyAxNzMuNjM3IDI0LjcwMVYyNS43NjU0SDE3Ni44NDlWMTcuNDQwMkMxNzYuODEgMTUuODQzNiAxNzYuMzEzIDE0LjYyNzIgMTc1LjMxOSAxMy43OTA5Wk0xNjkuNTA2IDIwLjgyMzRDMTY5Ljg4OSAyMC41NTczIDE3MC4zODYgMjAuNDQzMyAxNzEuMDc0IDIwLjQ0MzNDMTcxLjg3NyAyMC40NDMzIDE3Mi43MTggMjAuNTk1NCAxNzMuNTU5IDIwLjg5OTVWMjIuMTU0QzE3Mi44MzMgMjIuODAwMiAxNzEuODc3IDIzLjE0MjMgMTcwLjczIDIzLjE0MjNDMTcwLjE1NiAyMy4xNDIzIDE2OS43MzYgMjMuMDI4MyAxNjkuNDMgMjIuNzYyMkMxNjkuMTI0IDIyLjUzNDEgMTY4Ljk3MSAyMi4yMyAxNjguOTcxIDIxLjgxMThDMTY4Ljk3MSAyMS4zOTM3IDE2OS4xMjQgMjEuMDUxNSAxNjkuNTA2IDIwLjgyMzRaIiBmaWxsPSIjMDA2OUZGIi8+CjxwYXRoIGZpbGwtcnVsZT0iZXZlbm9kZCIgY2xpcC1ydWxlPSJldmVub2RkIiBkPSJNMTg5LjQyOCAxNC4wMTkxQzE4OC41MSAxMi45OTI3IDE4Ny4yNDggMTIuNDk4NSAxODUuNjA0IDEyLjQ5ODVDMTg0LjMwNCAxMi40OTg1IDE4My4yMzQgMTIuODc4NyAxODIuNDY5IDEzLjYwMVYxMi44MDI3SDE3OS4yNTdWMjUuNzY1NkgxODIuNTQ1VjE4LjYxODlDMTgyLjU0NSAxNy42MzA1IDE4Mi43NzUgMTYuODcwMiAxODMuMjM0IDE2LjNDMTgzLjY5MiAxNS43Mjk4IDE4NC4zNDIgMTUuNDYzNyAxODUuMTg0IDE1LjQ2MzdDMTg1LjkxIDE1LjQ2MzcgMTg2LjQ4NCAxNS42OTE4IDE4Ni45MDQgMTYuMTg1OUMxODcuMzI1IDE2LjY4MDEgMTg3LjUxNiAxNy4zNjQ0IDE4Ny41MTYgMTguMjM4N1YyNS43Mjc2SDE5MC44MDRWMTguMjM4N0MxOTAuODA0IDE2LjQ1MiAxOTAuMzQ2IDE1LjA0NTUgMTg5LjQyOCAxNC4wMTkxWiIgZmlsbD0iIzAwNjlGRiIvPgo8cGF0aCBmaWxsLXJ1bGU9ImV2ZW5vZGQiIGNsaXAtcnVsZT0iZXZlbm9kZCIgZD0iTTEwOC43ODggMTMuNzkwOUMxMDcuNzk0IDEyLjk1NDUgMTA2LjQxNyAxMi41MzY0IDEwNC42OTcgMTIuNTM2NEMxMDMuNTg4IDEyLjUzNjQgMTAyLjU5NCAxMi43NjQ1IDEwMS42NzYgMTMuMjIwNkMxMDAuODM1IDEzLjYzODggOTkuOTkzNCAxNC4zNjExIDk5LjQ1ODEgMTUuMzExNEw5OS40OTYzIDE1LjM0OTRMMTAxLjU5OSAxNy4zNjQyQzEwMi40NzkgMTUuOTk1NyAxMDMuNDM1IDE1LjUwMTUgMTA0LjY5NyAxNS41MDE1QzEwNS4zODUgMTUuNTAxNSAxMDUuOTU4IDE1LjY5MTYgMTA2LjM3OSAxNi4wMzM3QzEwNi44IDE2LjM3NTggMTA3LjAyOSAxNi44MzIgMTA3LjAyOSAxNy40NDAyVjE4LjA4NjVDMTA2LjIyNiAxNy44NTg0IDEwNS40MjMgMTcuNzA2MyAxMDQuNjIgMTcuNzA2M0MxMDIuOTc2IDE3LjcwNjMgMTAxLjY3NiAxOC4wODY1IDEwMC42ODIgMTguODQ2OEM5OS42ODc1IDE5LjYwNzEgOTkuMTkwNCAyMC43MDk1IDk5LjE5MDQgMjIuMDc4Qzk5LjE5MDQgMjMuMjk0NSA5OS42MTEgMjQuMjgyOSAxMDAuNDUyIDI1LjAwNTFDMTAxLjI5MyAyNS43Mjc0IDEwMi4zNjQgMjYuMDY5NSAxMDMuNjI2IDI2LjA2OTVDMTA0Ljg4OCAyNi4wNjk1IDEwNi4wMzUgMjUuNTc1MyAxMDcuMTA2IDI0LjcwMVYyNS43NjU0SDExMC4zMTdWMTcuNDQwMkMxMTAuMjc5IDE1Ljg0MzYgMTA5Ljc4MiAxNC42MjcyIDEwOC43ODggMTMuNzkwOVpNMTAyLjk3NSAyMC44MjM0QzEwMy4zNTggMjAuNTU3MyAxMDMuODU1IDIwLjQ0MzMgMTA0LjU0MyAyMC40NDMzQzEwNS4zNDYgMjAuNDQzMyAxMDYuMTg3IDIwLjU5NTQgMTA3LjAyOCAyMC44OTk1VjIyLjE1NEMxMDYuMzAyIDIyLjgwMDIgMTA1LjM0NiAyMy4xNDIzIDEwNC4xOTkgMjMuMTQyM0MxMDMuNjI1IDIzLjE0MjMgMTAzLjIwNSAyMy4wMjgzIDEwMi44OTkgMjIuNzYyMkMxMDIuNTkzIDIyLjUzNDEgMTAyLjQ0IDIyLjIzIDEwMi40NCAyMS44MTE4QzEwMi40NCAyMS4zOTM3IDEwMi41OTMgMjEuMDUxNSAxMDIuOTc1IDIwLjgyMzRaIiBmaWxsPSIjMDA2OUZGIi8+CjxwYXRoIGZpbGwtcnVsZT0iZXZlbm9kZCIgY2xpcC1ydWxlPSJldmVub2RkIiBkPSJNMTI4LjA1NyAyNi4wMzE2QzEyMi44MTkgMjYuMDMxNiAxMTguNTM2IDIxLjc3MzkgMTE4LjUzNiAxNi41NjU5QzExOC41MzYgMTEuMzU4IDEyMi44MTkgNy4xMDAzNCAxMjguMDU3IDcuMTAwMzRDMTMzLjI5NiA3LjEwMDM0IDEzNy41NzggMTEuMzU4IDEzNy41NzggMTYuNTY1OUMxMzcuNTc4IDIxLjc3MzkgMTMzLjMzNCAyNi4wMzE2IDEyOC4wNTcgMjYuMDMxNlpNMTI4LjA1NiAxMC40MDc4QzEyNC42NTMgMTAuNDA3OCAxMjEuOSAxMy4xNDQ4IDEyMS45IDE2LjUyODFDMTIxLjkgMTkuOTExNCAxMjQuNjUzIDIyLjY0ODUgMTI4LjA1NiAyMi42NDg1QzEzMS40NTkgMjIuNjQ4NSAxMzQuMjEyIDE5LjkxMTQgMTM0LjIxMiAxNi41MjgxQzEzNC4yMTIgMTMuMTQ0OCAxMzEuNDU5IDEwLjQwNzggMTI4LjA1NiAxMC40MDc4WiIgZmlsbD0iIzAwNjlGRiIvPgo8L3N2Zz4=;" vertex="1" parent="1">
                    <mxGeometry x="54.5" y="371.28" width="191" height="32" as="geometry"/>
                </mxCell>
                <mxCell id="3" value="" style="outlineConnect=0;dashed=0;verticalLabelPosition=bottom;verticalAlign=top;align=center;html=1;shape=mxgraph.aws3.postgre_sql_instance;fillColor=#2E73B8;gradientColor=none;" vertex="1" parent="1">
                    <mxGeometry x="110" y="285.49" width="69.52" height="73" as="geometry"/>
                </mxCell>
                <mxCell id="4" value="" style="shape=image;verticalLabelPosition=bottom;labelBackgroundColor=#ffffff;verticalAlign=top;aspect=fixed;imageAspect=0;image=data:image/svg+xml,PHN2ZyB4bWxucz0iaHR0cDovL3d3dy53My5vcmcvMjAwMC9zdmciIHdpZHRoPSIxNjAiIGhlaWdodD0iNDAiIHZpZXdCb3g9IjAgMCAxNjAgNDAiIGZpbGw9Im5vbmUiPgo8cGF0aCBkPSJNNjcuMDE4OCAyMC4wMDIxQzY3LjAxODggMjAuNzQ5NCA2Ni45NDE0IDIxLjQ2NiA2Ni43ODY2IDIyLjE1MTdDNjYuNjMxOCAyMi44Mjk3IDY2LjQwNzQgMjMuNDY1MyA2Ni4xMTMzIDI0LjA1ODZDNjUuODI2OSAyNC42NTE5IDY1LjQ3NDggMjUuMTk4OSA2NS4wNTY4IDI1LjY5OTdDNjQuNjM4OSAyNi4xOTI4IDY0LjE2MyAyNi42MjgxIDYzLjYyODkgMjcuMDA1Nkw2Ny44ODk0IDMxLjYyODVINjUuMzEyMkM2NC45NDA4IDMxLjYyODUgNjQuNjA0MSAzMS41Nzg0IDY0LjMwMjMgMzEuNDc4MkM2NC4wMDgyIDMxLjM3ODEgNjMuNzM3MyAzMS4xOTMxIDYzLjQ4OTYgMzAuOTIzNUw2MS4wMjg1IDI4LjIxOTFDNjAuNjMzOCAyOC4zMjcgNjAuMjI3NSAyOC40MDc5IDU5LjgwOTYgMjguNDYxOEM1OS4zOTk0IDI4LjUxNTggNTguOTY5OSAyOC41NDI3IDU4LjUyMSAyOC41NDI3QzU3LjI1MTcgMjguNTQyNyA1Ni4wOTA4IDI4LjMzMDkgNTUuMDM4MyAyNy45MDcxQzUzLjk5MzUgMjcuNDc1NiA1My4wOTU3IDI2Ljg3ODUgNTIuMzQ1IDI2LjExNTdDNTEuNjAyIDI1LjM1MyA1MS4wMjU1IDI0LjQ1MTUgNTAuNjE1MyAyMy40MTE0QzUwLjIwNTEgMjIuMzYzNiA1MCAyMS4yMjcxIDUwIDIwLjAwMjFDNTAgMTguNzc3IDUwLjIwNTEgMTcuNjQ0NCA1MC42MTUzIDE2LjYwNDNDNTEuMDI1NSAxNS41NTY0IDUxLjYwMiAxNC42NTExIDUyLjM0NSAxMy44ODg0QzUzLjA5NTcgMTMuMTI1NiA1My45OTM1IDEyLjUzMjMgNTUuMDM4MyAxMi4xMDg2QzU2LjA5MDggMTEuNjc3MSA1Ny4yNTE3IDExLjQ2MTQgNTguNTIxIDExLjQ2MTRDNTkuNzkwMiAxMS40NjE0IDYwLjk0NzMgMTEuNjc3MSA2MS45OTIxIDEyLjEwODZDNjMuMDM2OSAxMi41NDAxIDYzLjkzMDggMTMuMTM3MiA2NC42NzM3IDEzLjg5OTlDNjUuNDE2NyAxNC42NTUgNjUuOTkzMyAxNS41NTY0IDY2LjQwMzUgMTYuNjA0M0M2Ni44MTM3IDE3LjY0NDQgNjcuMDE4OCAxOC43NzcgNjcuMDE4OCAyMC4wMDIxWk02My44MTQ3IDIwLjAwMjFDNjMuODE0NyAxOS4wODUyIDYzLjY5MDkgMTguMjY0NiA2My40NDMyIDE3LjU0MDRDNjMuMjAzMyAxNi44MDg1IDYyLjg1NSAxNi4xODgyIDYyLjM5ODQgMTUuNjc5N0M2MS45NDE4IDE1LjE3MTIgNjEuMzg0NSAxNC43ODIxIDYwLjcyNjcgMTQuNTEyNUM2MC4wNzY2IDE0LjI0MjggNTkuMzQxNCAxNC4xMDggNTguNTIxIDE0LjEwOEM1Ny43MDA2IDE0LjEwOCA1Ni45NjE1IDE0LjI0MjggNTYuMzAzNyAxNC41MTI1QzU1LjY0NTggMTQuNzgyMSA1NS4wODQ3IDE1LjE3MTIgNTQuNjIwNCAxNS42Nzk3QzU0LjE2MzggMTYuMTg4MiA1My44MTE2IDE2LjgwODUgNTMuNTY0IDE3LjU0MDRDNTMuMzE2MyAxOC4yNjQ2IDUzLjE5MjUgMTkuMDg1MiA1My4xOTI1IDIwLjAwMjFDNTMuMTkyNSAyMC45MTg5IDUzLjMxNjMgMjEuNzQzMyA1My41NjQgMjIuNDc1M0M1My44MTE2IDIzLjE5OTUgNTQuMTYzOCAyMy44MTU5IDU0LjYyMDQgMjQuMzI0NEM1NS4wODQ3IDI0LjgyNTIgNTUuNjQ1OCAyNS4yMTA0IDU2LjMwMzcgMjUuNDgwMUM1Ni45NjE1IDI1Ljc0OTggNTcuNzAwNiAyNS44ODQ2IDU4LjUyMSAyNS44ODQ2QzU5LjM0MTQgMjUuODg0NiA2MC4wNzY2IDI1Ljc0OTggNjAuNzI2NyAyNS40ODAxQzYxLjM4NDUgMjUuMjEwNCA2MS45NDE4IDI0LjgyNTIgNjIuMzk4NCAyNC4zMjQ0QzYyLjg1NSAyMy44MTU5IDYzLjIwMzMgMjMuMTk5NSA2My40NDMyIDIyLjQ3NTNDNjMuNjkwOSAyMS43NDMzIDYzLjgxNDcgMjAuOTE4OSA2My44MTQ3IDIwLjAwMjFaIiBmaWxsPSIjMTAxNTFCIi8+CjxwYXRoIGQ9Ik03MS4wMTkzIDE2LjUwMDNWMjQuMDM1NUM3MS4wMTkzIDI0Ljc1OTcgNzEuMTg1NyAyNS4zMjIyIDcxLjUxODUgMjUuNzIyOEM3MS44NTkgMjYuMTE1NyA3Mi4zNjYgMjYuMzEyMiA3My4wMzkzIDI2LjMxMjJDNzMuNTM0NiAyNi4zMTIyIDczLjk5OSAyNi4yMDQ0IDc0LjQzMjQgMjUuOTg4NkM3NC44NjU4IDI1Ljc2NTIgNzUuMjc1OSAyNS40NjA4IDc1LjY2MjkgMjUuMDc1NlYxNi41MDAzSDc4LjUzMDNWMjguMzU3OEg3Ni43Nzc0Qzc2LjQwNTkgMjguMzU3OCA3Ni4xNjIxIDI4LjE4NDUgNzYuMDQ2IDI3LjgzNzdMNzUuODQ4NyAyNi44OTAxQzc1LjYwMSAyNy4xMzY2IDc1LjM0NTYgMjcuMzYzOSA3NS4wODI1IDI3LjU3MTlDNzQuODE5MyAyNy43NzIzIDc0LjUzNjggMjcuOTQ1NiA3NC4yMzUgMjguMDkyQzczLjk0MDkgMjguMjMwNyA3My42MTk3IDI4LjMzODYgNzMuMjcxNSAyOC40MTU2QzcyLjkzMDkgMjguNTAwNCA3Mi41NjMzIDI4LjU0MjcgNzIuMTY4NiAyOC41NDI3QzcxLjUxODUgMjguNTQyNyA3MC45NDE5IDI4LjQzNDkgNzAuNDM4OSAyOC4yMTkxQzY5Ljk0MzYgMjcuOTk1NyA2OS41MjU2IDI3LjY4MzcgNjkuMTg1MSAyNy4yODNDNjguODQ0NiAyNi44ODI0IDY4LjU4NTMgMjYuNDA4NSA2OC40MDczIDI1Ljg2MTVDNjguMjM3IDI1LjMwNjggNjguMTUxOSAyNC42OTgxIDY4LjE1MTkgMjQuMDM1NVYxNi41MDAzSDcxLjAxOTNaIiBmaWxsPSIjMTAxNTFCIi8+CjxwYXRoIGQ9Ik04My43MTYzIDE2LjUwMDNWMjguMzU3OEg4MC44NDg5VjE2LjUwMDNIODMuNzE2M1pNODQuMTQ1OCAxMy4wNDQ3Qzg0LjE0NTggMTMuMjkxMyA4NC4wOTU1IDEzLjUyMjQgODMuOTk0OSAxMy43MzgxQzgzLjg5NDMgMTMuOTUzOSA4My43NTg4IDE0LjE0MjYgODMuNTg4NiAxNC4zMDQ0QzgzLjQyNiAxNC40NjYyIDgzLjIzMjYgMTQuNTk3MiA4My4wMDgxIDE0LjY5NzRDODIuNzgzNyAxNC43ODk4IDgyLjU0MzggMTQuODM2MSA4Mi4yODg0IDE0LjgzNjFDODIuMDQwNyAxNC44MzYxIDgxLjgwNDcgMTQuNzg5OCA4MS41ODAyIDE0LjY5NzRDODEuMzYzNSAxNC41OTcyIDgxLjE3MzkgMTQuNDY2MiA4MS4wMTE0IDE0LjMwNDRDODAuODQ4OSAxNC4xNDI2IDgwLjcxNzMgMTMuOTUzOSA4MC42MTY3IDEzLjczODFDODAuNTIzOCAxMy41MjI0IDgwLjQ3NzQgMTMuMjkxMyA4MC40Nzc0IDEzLjA0NDdDODAuNDc3NCAxMi43OTA1IDgwLjUyMzggMTIuNTUxNiA4MC42MTY3IDEyLjMyODJDODAuNzE3MyAxMi4xMDQ3IDgwLjg0ODkgMTEuOTEyMSA4MS4wMTE0IDExLjc1MDNDODEuMTczOSAxMS41ODg1IDgxLjM2MzUgMTEuNDYxNCA4MS41ODAyIDExLjM2ODlDODEuODA0NyAxMS4yNjg4IDgyLjA0MDcgMTEuMjE4NyA4Mi4yODg0IDExLjIxODdDODIuNTQzOCAxMS4yMTg3IDgyLjc4MzcgMTEuMjY4OCA4My4wMDgxIDExLjM2ODlDODMuMjMyNiAxMS40NjE0IDgzLjQyNiAxMS41ODg1IDgzLjU4ODYgMTEuNzUwM0M4My43NTg4IDExLjkxMjEgODMuODk0MyAxMi4xMDQ3IDgzLjk5NDkgMTIuMzI4MkM4NC4wOTU1IDEyLjU1MTYgODQuMTQ1OCAxMi43OTA1IDg0LjE0NTggMTMuMDQ0N1oiIGZpbGw9IiMxMDE1MUIiLz4KPHBhdGggZD0iTTk0LjQwNzggMTkuMDA4MkM5NC4zMjI3IDE5LjExNiA5NC4yMzc1IDE5LjIwMDggOTQuMTUyNCAxOS4yNjI0Qzk0LjA3NSAxOS4zMjQgOTMuOTU4OSAxOS4zNTQ5IDkzLjgwNDEgMTkuMzU0OUM5My42NTcxIDE5LjM1NDkgOTMuNTEzOSAxOS4zMTI1IDkzLjM3NDYgMTkuMjI3N0M5My4yMzUzIDE5LjEzNTMgOTMuMDY4OSAxOS4wMzUxIDkyLjg3NTQgMTguOTI3M0M5Mi42ODE5IDE4LjgxMTcgOTIuNDQ5NyAxOC43MTE1IDkyLjE3ODkgMTguNjI2OEM5MS45MTU3IDE4LjUzNDMgOTEuNTg2OCAxOC40ODgxIDkxLjE5MjEgMTguNDg4MUM5MC42ODkgMTguNDg4MSA5MC4yNDc5IDE4LjU4MDUgODkuODY4NyAxOC43NjU1Qzg5LjQ4OTQgMTguOTQyNyA4OS4xNzIxIDE5LjIwMDggODguOTE2NyAxOS41Mzk4Qzg4LjY2OTEgMTkuODc4OCA4OC40ODMzIDIwLjI5MSA4OC4zNTk1IDIwLjc3NjRDODguMjM1NyAyMS4yNTQxIDg4LjE3MzggMjEuNzk3MyA4OC4xNzM4IDIyLjQwNTlDODguMTczOCAyMy4wMzc3IDg4LjIzOTUgMjMuNjAwMiA4OC4zNzExIDI0LjA5MzNDODguNTEwNCAyNC41ODY0IDg4LjcwNzggMjUuMDAyNCA4OC45NjMyIDI1LjM0MTRDODkuMjE4NiAyNS42NzI3IDg5LjUyODEgMjUuOTI3IDg5Ljg5MTkgMjYuMTA0MkM5MC4yNTU2IDI2LjI3MzcgOTAuNjY1OCAyNi4zNTg0IDkxLjEyMjQgMjYuMzU4NEM5MS41NzkxIDI2LjM1ODQgOTEuOTQ2NyAyNi4zMDQ1IDkyLjIyNTMgMjYuMTk2NkM5Mi41MTE2IDI2LjA4MTEgOTIuNzUxNiAyNS45NTc4IDkyLjk0NTEgMjUuODI2OEM5My4xMzg1IDI1LjY4ODEgOTMuMzA0OSAyNS41NjQ5IDkzLjQ0NDIgMjUuNDU3QzkzLjU5MTMgMjUuMzQxNCA5My43NTM4IDI1LjI4MzYgOTMuOTMxOCAyNS4yODM2Qzk0LjE2NCAyNS4yODM2IDk0LjMzODEgMjUuMzcyMiA5NC40NTQyIDI1LjU0OTVMOTUuMjc4NSAyNi41ODk2Qzk0Ljk2MTEgMjYuOTU5NCA5NC42MTY3IDI3LjI3MTUgOTQuMjQ1MyAyNy41MjU3QzkzLjg3MzggMjcuNzcyMyA5My40ODY4IDI3Ljk3MjYgOTMuMDg0NCAyOC4xMjY3QzkyLjY4OTYgMjguMjczMSA5Mi4yNzk1IDI4LjM3NzEgOTEuODUzOCAyOC40Mzg3QzkxLjQyODEgMjguNTAwNCA5MS4wMDYzIDI4LjUzMTIgOTAuNTg4NCAyOC41MzEyQzg5Ljg1MzIgMjguNTMxMiA4OS4xNjA1IDI4LjM5NjMgODguNTEwNCAyOC4xMjY3Qzg3Ljg2MDMgMjcuODQ5MyA4Ny4yOTE1IDI3LjQ0ODcgODYuODAzOSAyNi45MjQ3Qzg2LjMyNDEgMjYuNDAwOCA4NS45NDEgMjUuNzYxMyA4NS42NTQ2IDI1LjAwNjNDODUuMzc2IDI0LjI0MzUgODUuMjM2NyAyMy4zNzY3IDg1LjIzNjcgMjIuNDA1OUM4NS4yMzY3IDIxLjUzNTMgODUuMzYwNSAyMC43MzAyIDg1LjYwODIgMTkuOTkwNUM4NS44NjM2IDE5LjI0MzEgODYuMjM1MSAxOC41OTk4IDg2LjcyMjYgMTguMDYwNUM4Ny4yMTAyIDE3LjUxMzQgODcuODEzOSAxNy4wODU4IDg4LjUzMzYgMTYuNzc3NkM4OS4yNTM0IDE2LjQ2OTUgOTAuMDgxNSAxNi4zMTU0IDkxLjAxOCAxNi4zMTU0QzkxLjkwOCAxNi4zMTU0IDkyLjY4NTggMTYuNDU3OSA5My4zNTE0IDE2Ljc0M0M5NC4wMjQ3IDE3LjAyOCA5NC42MjgzIDE3LjQzNjQgOTUuMTYyNCAxNy45NjhMOTQuNDA3OCAxOS4wMDgyWiIgZmlsbD0iIzEwMTUxQiIvPgo8cGF0aCBkPSJNOTkuMDc2IDExLjE4NFYyMS4wMTkxSDk5LjYxMDFDOTkuODAzNSAyMS4wMTkxIDk5Ljk1NDUgMjAuOTkyMSAxMDAuMDYzIDIwLjkzODJDMTAwLjE3MSAyMC44ODQyIDEwMC4yODcgMjAuNzg0MSAxMDAuNDExIDIwLjYzNzdMMTAzLjM3MSAxNi45OTcyQzEwMy41MDMgMTYuODQzMSAxMDMuNjQyIDE2LjcyMzcgMTAzLjc4OSAxNi42MzlDMTAzLjkzNiAxNi41NDY1IDEwNC4xMyAxNi41MDAzIDEwNC4zNyAxNi41MDAzSDEwNi45OTNMMTAzLjI5IDIwLjkwMzVDMTAzLjE1OSAyMS4wNjUzIDEwMy4wMjMgMjEuMjE1NiAxMDIuODg0IDIxLjM1NDJDMTAyLjc0NCAyMS40ODUyIDEwMi41OTQgMjEuNjAwOCAxMDIuNDMxIDIxLjcwMDlDMTAyLjU5NCAyMS44MTY1IDEwMi43MzcgMjEuOTUxNCAxMDIuODYxIDIyLjEwNTRDMTAyLjk4NCAyMi4yNTk1IDEwMy4xMDggMjIuNDI1MiAxMDMuMjMyIDIyLjYwMjRMMTA3LjIwMiAyOC4zNTc4SDEwNC42MTRDMTA0LjM4OSAyOC4zNTc4IDEwNC4xOTkgMjguMzE5MyAxMDQuMDQ1IDI4LjI0MjJDMTAzLjg5IDI4LjE2NTIgMTAzLjc1MSAyOC4wMzQyIDEwMy42MjcgMjcuODQ5M0wxMDAuNTk3IDIzLjM1MzZDMTAwLjQ4MSAyMy4xNzY0IDEwMC4zNjUgMjMuMDYwOCAxMDAuMjQ5IDIzLjAwNjlDMTAwLjEzMiAyMi45NTMgOTkuOTU4MyAyMi45MjYgOTkuNzI2MSAyMi45MjZIOTkuMDc2VjI4LjM1NzhIOTYuMjA4NlYxMS4xODRIOTkuMDc2WiIgZmlsbD0iIzEwMTUxQiIvPgo8cGF0aCBkPSJNMTA5Ljg1NSAxMS42NDYzQzEwOS45OTQgMTEuNjQ2MyAxMTAuMTExIDExLjY1NCAxMTAuMjAzIDExLjY2OTRDMTEwLjI5NiAxMS42NzcxIDExMC4zNzggMTEuNzAwMiAxMTAuNDQ3IDExLjczODhDMTEwLjUyNSAxMS43Njk2IDExMC41OTggMTEuODE5NyAxMTAuNjY4IDExLjg4OUMxMTAuNzM3IDExLjk1MDYgMTEwLjgxNSAxMi4wMzU0IDExMC45IDEyLjE0MzNMMTE5LjcxMSAyMy4zMTg5QzExOS42OCAyMy4wNDkzIDExOS42NTcgMjIuNzg3MyAxMTkuNjQyIDIyLjUzMzFDMTE5LjYzNCAyMi4yNzExIDExOS42MyAyMi4wMjg0IDExOS42MyAyMS44MDVWMTEuNjQ2M0gxMjIuMzgxVjI4LjM1NzhIMTIwLjc2OEMxMjAuNTIgMjguMzU3OCAxMjAuMzE1IDI4LjMxOTMgMTIwLjE1MiAyOC4yNDIyQzExOS45OSAyOC4xNjUyIDExOS44MzEgMjguMDI2NSAxMTkuNjc2IDI3LjgyNjJMMTEwLjkgMTYuNjk2N0MxMTAuOTIzIDE2Ljk0MzMgMTEwLjkzOSAxNy4xODk4IDExMC45NDYgMTcuNDM2NEMxMTAuOTYyIDE3LjY3NTIgMTEwLjk3IDE3Ljg5NDggMTEwLjk3IDE4LjA5NTFWMjguMzU3OEgxMDguMjE4VjExLjY0NjNIMTA5Ljg1NVoiIGZpbGw9IiMxMDE1MUIiLz4KPHBhdGggZD0iTTEyOS43NjEgMTYuMzE1NEMxMzAuNjUxIDE2LjMxNTQgMTMxLjQ1NiAxNi40NTc5IDEzMi4xNzYgMTYuNzQzQzEzMi45MDMgMTcuMDI4IDEzMy41MjMgMTcuNDMyNSAxMzQuMDMzIDE3Ljk1NjVDMTM0LjU0NCAxOC40ODA0IDEzNC45MzkgMTkuMTE5OSAxMzUuMjE3IDE5Ljg3NDlDMTM1LjQ5NiAyMC42MyAxMzUuNjM1IDIxLjQ3MzcgMTM1LjYzNSAyMi40MDU5QzEzNS42MzUgMjMuMzQ1OSAxMzUuNDk2IDI0LjE5MzQgMTM1LjIxNyAyNC45NDg1QzEzNC45MzkgMjUuNzAzNSAxMzQuNTQ0IDI2LjM0NjkgMTM0LjAzMyAyNi44Nzg1QzEzMy41MjMgMjcuNDEwMSAxMzIuOTAzIDI3LjgxODUgMTMyLjE3NiAyOC4xMDM2QzEzMS40NTYgMjguMzg4NiAxMzAuNjUxIDI4LjUzMTIgMTI5Ljc2MSAyOC41MzEyQzEyOC44NzEgMjguNTMxMiAxMjguMDYyIDI4LjM4ODYgMTI3LjMzNSAyOC4xMDM2QzEyNi42MDggMjcuODE4NSAxMjUuOTg0IDI3LjQxMDEgMTI1LjQ2NiAyNi44Nzg1QzEyNC45NTUgMjYuMzQ2OSAxMjQuNTU3IDI1LjcwMzUgMTI0LjI3IDI0Ljk0ODVDMTIzLjk5MiAyNC4xOTM0IDEyMy44NTIgMjMuMzQ1OSAxMjMuODUyIDIyLjQwNTlDMTIzLjg1MiAyMS40NzM3IDEyMy45OTIgMjAuNjMgMTI0LjI3IDE5Ljg3NDlDMTI0LjU1NyAxOS4xMTk5IDEyNC45NTUgMTguNDgwNCAxMjUuNDY2IDE3Ljk1NjVDMTI1Ljk4NCAxNy40MzI1IDEyNi42MDggMTcuMDI4IDEyNy4zMzUgMTYuNzQzQzEyOC4wNjIgMTYuNDU3OSAxMjguODcxIDE2LjMxNTQgMTI5Ljc2MSAxNi4zMTU0Wk0xMjkuNzYxIDI2LjMzNTNDMTMwLjc1MiAyNi4zMzUzIDEzMS40ODMgMjYuMDA0IDEzMS45NTUgMjUuMzQxNEMxMzIuNDM1IDI0LjY3ODggMTMyLjY3NSAyMy43MDggMTMyLjY3NSAyMi40MjlDMTMyLjY3NSAyMS4xNTAxIDEzMi40MzUgMjAuMTc1NCAxMzEuOTU1IDE5LjUwNTFDMTMxLjQ4MyAxOC44MzQ4IDEzMC43NTIgMTguNDk5NiAxMjkuNzYxIDE4LjQ5OTZDMTI4Ljc1NSAxOC40OTk2IDEyOC4wMTIgMTguODM4NiAxMjcuNTMyIDE5LjUxNjdDMTI3LjA1MyAyMC4xODcgMTI2LjgxMyAyMS4xNTc4IDEyNi44MTMgMjIuNDI5QzEyNi44MTMgMjMuNzAwMyAxMjcuMDUzIDI0LjY3MTEgMTI3LjUzMiAyNS4zNDE0QzEyOC4wMTIgMjYuMDA0IDEyOC43NTUgMjYuMzM1MyAxMjkuNzYxIDI2LjMzNTNaIiBmaWxsPSIjMTAxNTFCIi8+CjxwYXRoIGQ9Ik0xNDUuMzI2IDI4LjM1NzhDMTQ0Ljk1NCAyOC4zNTc4IDE0NC43MSAyOC4xODQ1IDE0NC41OTQgMjcuODM3N0wxNDQuMzYyIDI2LjY5MzZDMTQ0LjExNCAyNi45NzEgMTQzLjg1NSAyNy4yMjE0IDE0My41ODQgMjcuNDQ0OEMxNDMuMzEzIDI3LjY2ODIgMTQzLjAxOSAyNy44NjA5IDE0Mi43MDIgMjguMDIyN0MxNDIuMzkyIDI4LjE4NDUgMTQyLjA1NiAyOC4zMDc3IDE0MS42OTIgMjguMzkyNUMxNDEuMzM2IDI4LjQ4NDkgMTQwLjk0OSAyOC41MzEyIDE0MC41MzEgMjguNTMxMkMxMzkuODgxIDI4LjUzMTIgMTM5LjI4NSAyOC4zOTYzIDEzOC43NDMgMjguMTI2N0MxMzguMjAyIDI3Ljg1NyAxMzcuNzMzIDI3LjQ2NzkgMTM3LjMzOSAyNi45NTk0QzEzNi45NTIgMjYuNDQzMiAxMzYuNjUgMjUuODA3NiAxMzYuNDMzIDI1LjA1MjVDMTM2LjIyNCAyNC4yOTc0IDEzNi4xMiAyMy40MzQ1IDEzNi4xMiAyMi40NjM3QzEzNi4xMiAyMS41ODU0IDEzNi4yNCAyMC43Njg3IDEzNi40OCAyMC4wMTM2QzEzNi43MiAxOS4yNTg2IDEzNy4wNjQgMTguNjAzNyAxMzcuNTEzIDE4LjA0ODlDMTM3Ljk2MiAxNy40OTQyIDEzOC41IDE3LjA2MjcgMTM5LjEyNiAxNi43NTQ1QzEzOS43NTMgMTYuNDM4NiAxNDAuNDU4IDE2LjI4MDcgMTQxLjIzOSAxNi4yODA3QzE0MS45MDUgMTYuMjgwNyAxNDIuNDc0IDE2LjM4ODYgMTQyLjk0NiAxNi42MDQzQzE0My40MTggMTYuODEyMyAxNDMuODQgMTcuMDkzNSAxNDQuMjExIDE3LjQ0NzlWMTEuMTg0SDE0Ny4wNzlWMjguMzU3OEgxNDUuMzI2Wk0xNDEuNTA2IDI2LjI2NkMxNDIuMTAyIDI2LjI2NiAxNDIuNjA5IDI2LjE0MjcgMTQzLjAyNyAyNS44OTYyQzE0My40NDUgMjUuNjQ5NiAxNDMuODQgMjUuMjk5IDE0NC4yMTEgMjQuODQ0NVYxOS41MjgyQzE0My44ODYgMTkuMTM1MyAxNDMuNTMgMTguODU3OSAxNDMuMTQzIDE4LjY5NjFDMTQyLjc2NCAxOC41MzQzIDE0Mi4zNTQgMTguNDUzNCAxNDEuOTEzIDE4LjQ1MzRDMTQxLjQ3OSAxOC40NTM0IDE0MS4wODUgMTguNTM0MyAxNDAuNzI5IDE4LjY5NjFDMTQwLjM4IDE4Ljg1NzkgMTQwLjA4MiAxOS4xMDQ1IDEzOS44MzUgMTkuNDM1OEMxMzkuNTk1IDE5Ljc1OTQgMTM5LjQwOSAyMC4xNzU0IDEzOS4yNzcgMjAuNjgzOUMxMzkuMTQ2IDIxLjE4NDcgMTM5LjA4IDIxLjc3OCAxMzkuMDggMjIuNDYzN0MxMzkuMDggMjMuMTU3MSAxMzkuMTM0IDIzLjc0NjUgMTM5LjI0MyAyNC4yMzE5QzEzOS4zNTkgMjQuNzA5NiAxMzkuNTIxIDI1LjEwMjYgMTM5LjczIDI1LjQxMDhDMTM5LjkzOSAyNS43MTEyIDE0MC4xOTQgMjUuOTMwOCAxNDAuNDk2IDI2LjA2OTVDMTQwLjc5OCAyNi4yMDA1IDE0MS4xMzUgMjYuMjY2IDE0MS41MDYgMjYuMjY2WiIgZmlsbD0iIzEwMTUxQiIvPgo8cGF0aCBkPSJNMTU0LjE3OSAxNi4zMTU0QzE1NC45MyAxNi4zMTU0IDE1NS42MTggMTYuNDM0OCAxNTYuMjQ1IDE2LjY3MzZDMTU2Ljg4IDE2LjkxMjUgMTU3LjQyNiAxNy4yNjMgMTU3Ljg4MiAxNy43MjUzQzE1OC4zMzkgMTguMTc5OSAxNTguNjk1IDE4Ljc0MjMgMTU4Ljk1IDE5LjQxMjdDMTU5LjIwNiAyMC4wNzUzIDE1OS4zMzMgMjAuODM0MiAxNTkuMzMzIDIxLjY4OTRDMTU5LjMzMyAyMS45MDUxIDE1OS4zMjIgMjIuMDg2MiAxNTkuMjk5IDIyLjIzMjZDMTU5LjI4MyAyMi4zNzEzIDE1OS4yNDggMjIuNDgzIDE1OS4xOTQgMjIuNTY3N0MxNTkuMTQ4IDIyLjY0NDggMTU5LjA4MiAyMi43MDI2IDE1OC45OTcgMjIuNzQxMUMxNTguOTEyIDIyLjc3MTkgMTU4LjgwMyAyMi43ODczIDE1OC42NzIgMjIuNzg3M0gxNTEuMzEyQzE1MS4zOTcgMjQuMDA0NyAxNTEuNzI2IDI0Ljg5ODQgMTUyLjI5OCAyNS40Njg2QzE1Mi44NzEgMjYuMDM4NyAxNTMuNjI5IDI2LjMyMzggMTU0LjU3NCAyNi4zMjM4QzE1NS4wMzggMjYuMzIzOCAxNTUuNDM3IDI2LjI2OTggMTU1Ljc2OSAyNi4xNjJDMTU2LjExIDI2LjA1NDEgMTU2LjQwNCAyNS45MzQ3IDE1Ni42NTIgMjUuODAzN0MxNTYuOTA3IDI1LjY3MjcgMTU3LjEyOCAyNS41NTMzIDE1Ny4zMTMgMjUuNDQ1NEMxNTcuNTA3IDI1LjMzNzYgMTU3LjY5MyAyNS4yODM2IDE1Ny44NzEgMjUuMjgzNkMxNTcuOTg3IDI1LjI4MzYgMTU4LjA4NyAyNS4zMDY4IDE1OC4xNzIgMjUuMzUzQzE1OC4yNTggMjUuMzk5MiAxNTguMzMxIDI1LjQ2NDcgMTU4LjM5MyAyNS41NDk1TDE1OS4yMjkgMjYuNTg5NkMxNTguOTEyIDI2Ljk1OTQgMTU4LjU1NiAyNy4yNzE1IDE1OC4xNjEgMjcuNTI1N0MxNTcuNzY2IDI3Ljc3MjMgMTU3LjM1MiAyNy45NzI2IDE1Ni45MTkgMjguMTI2N0MxNTYuNDkzIDI4LjI3MzEgMTU2LjA1NiAyOC4zNzcxIDE1NS42MDcgMjguNDM4N0MxNTUuMTY2IDI4LjUwMDQgMTU0LjczNiAyOC41MzEyIDE1NC4zMTggMjguNTMxMkMxNTMuNDkgMjguNTMxMiAxNTIuNzIgMjguMzk2MyAxNTIuMDA4IDI4LjEyNjdDMTUxLjI5NiAyNy44NDkzIDE1MC42NzcgMjcuNDQ0OCAxNTAuMTUxIDI2LjkxMzJDMTQ5LjYyNCAyNi4zNzM5IDE0OS4yMSAyNS43MTEzIDE0OC45MDggMjQuOTI1NEMxNDguNjA3IDI0LjEzMTggMTQ4LjQ1NiAyMy4yMTQ5IDE0OC40NTYgMjIuMTc0OEMxNDguNDU2IDIxLjM2NTggMTQ4LjU4NyAyMC42MDY5IDE0OC44NSAxOS44OThDMTQ5LjExNCAxOS4xODE1IDE0OS40ODkgMTguNTYxMyAxNDkuOTc3IDE4LjAzNzRDMTUwLjQ3MiAxNy41MDU3IDE1MS4wNzIgMTcuMDg1OCAxNTEuNzc2IDE2Ljc3NzZDMTUyLjQ4OCAxNi40Njk1IDE1My4yODkgMTYuMzE1NCAxNTQuMTc5IDE2LjMxNTRaTTE1NC4yMzcgMTguMzYxQzE1My40MDEgMTguMzYxIDE1Mi43NDcgMTguNTk2IDE1Mi4yNzUgMTkuMDY1OUMxNTEuODAzIDE5LjUzNTkgMTUxLjUwMSAyMC4yMDI0IDE1MS4zNyAyMS4wNjUzSDE1Ni43NTZDMTU2Ljc1NiAyMC42OTU1IDE1Ni43MDYgMjAuMzQ4OCAxNTYuNjA1IDIwLjAyNTJDMTU2LjUwNSAxOS42OTM5IDE1Ni4zNSAxOS40MDQ5IDE1Ni4xNDEgMTkuMTU4NEMxNTUuOTMyIDE4LjkxMTggMTU1LjY2OSAxOC43MTkyIDE1NS4zNTEgMTguNTgwNUMxNTUuMDM0IDE4LjQzNDIgMTU0LjY2MyAxOC4zNjEgMTU0LjIzNyAxOC4zNjFaIiBmaWxsPSIjMTAxNTFCIi8+CjxnIGNsaXAtcGF0aD0idXJsKCNjbGlwMF85NTE5XzY1NjcpIj4KPHBhdGggZmlsbC1ydWxlPSJldmVub2RkIiBjbGlwLXJ1bGU9ImV2ZW5vZGQiIGQ9Ik0yMCAzMi41QzIzLjM5NTYgMzIuNSAyNi40NzQ5IDMxLjE0NiAyOC43Mjc3IDI4Ljk0ODZDMjguNzg5NCAyOC44ODgzIDI4Ljg4ODMgMjguODg4MyAyOC45NDkzIDI4Ljk0OTNMMzQuMTQyMiAzNC4xNDIxTDM5LjUzMiAzOS41MzE5QzM5LjY0ODYgMzkuNjQ4NSAzOS41Mjg1IDM5Ljg0MjggMzkuMzcyMSAzOS43OTA2TDMwLjc3MDUgMzYuOTIzNEMzMC43MjYgMzYuOTA4NiAzMC42NzcxIDM2LjkxNDYgMzAuNjM3NCAzNi45Mzk2QzI3LjU1NjMgMzguODc4NCAyMy45MDkxIDQwIDIwIDQwQzguOTU0MyA0MCAwIDMxLjA0NTcgMCAyMEMwIDguOTU0MjcgOC45NTQzIC0zLjA1MTc2ZS0wNSAyMCAtMy4wNTE3NmUtMDVDMzEuMDQ1NyAtMy4wNTE3NmUtMDUgNDAgOC45NTQyNyA0MCAyMEM0MCAyNC43MTc4IDM4LjM2NjUgMjkuMDU0IDM1LjYzNDIgMzIuNDc0QzM1LjU3NjQgMzIuNTQ2NCAzNS40Njg2IDMyLjU1MTkgMzUuNDAzMSAzMi40ODY0TDI0Ljg0MyAyMS45MjYzQzI0LjcyNjQgMjEuODA5NyAyNC44NDY1IDIxLjYxNTQgMjUuMDAyOSAyMS42Njc2TDMxLjcxMzUgMjMuOTA0NUMzMS43OTU0IDIzLjkzMTcgMzEuODg0IDIzLjg4NzUgMzEuOTEwMiAyMy44MDUzQzMyLjI5MzMgMjIuNjA1NSAzMi41IDIxLjMyNjkgMzIuNSAyMEMzMi41IDEzLjA5NjQgMjYuOTAzNiA3LjQ5OTk3IDIwIDcuNDk5OTdDMTMuMDk2NCA3LjQ5OTk3IDcuNSAxMy4wOTY0IDcuNSAyMEM3LjUgMjYuOTAzNSAxMy4wOTY0IDMyLjUgMjAgMzIuNVoiIGZpbGw9IiMwMEE0RDYiLz4KPC9nPgo8ZGVmcz4KPGNsaXBQYXRoIGlkPSJjbGlwMF85NTE5XzY1NjciPgo8cmVjdCB3aWR0aD0iNDAiIGhlaWdodD0iNDAiIGZpbGw9IndoaXRlIi8+CjwvY2xpcFBhdGg+CjwvZGVmcz4KPC9zdmc+;" vertex="1" parent="1">
                    <mxGeometry x="332.5" y="367.28" width="144" height="36" as="geometry"/>
                </mxCell>
                <mxCell id="5" value="" style="shape=image;verticalLabelPosition=bottom;labelBackgroundColor=#ffffff;verticalAlign=top;aspect=fixed;imageAspect=0;image=data:image/svg+xml,PHN2ZyB4bWxucz0iaHR0cDovL3d3dy53My5vcmcvMjAwMC9zdmciIHdpZHRoPSIxNTMiIGhlaWdodD0iMzIiIHZpZXdCb3g9IjAgMCAxNTMgMzIiIGZpbGw9Im5vbmUiPgo8cGF0aCBkPSJNMjYuOTU4NSA5Ljc3NTlDMjYuMjk5NCA5LjM2OTk4IDI1LjQ0MjUgOS4zNjk5OCAyNC43MTc1IDkuNzc1OUwxOS41NzYyIDEyLjg4NzlMMTYuMDgyOCAxNC45MTc1TDEwLjk0MTYgMTguMDI5NkMxMC4yODI1IDE4LjQzNTUgOS40MjU2IDE4LjQzNTUgOC43MDA1NSAxOC4wMjk2TDQuNjEzOTMgMTUuNTk0MUMzLjk1NDggMTUuMTg4MiAzLjQ5MzQgMTQuNDQ0IDMuNDkzNCAxMy42MzIxVjguODI4NzVDMy40OTM0IDguMDE2OTEgMy44ODg4OCA3LjI3MjczIDQuNjEzOTMgNi44NjY4MUw4LjYzNDY0IDQuNDk4OTRDOS4yOTM3NyA0LjA5MzAyIDEwLjE1MDYgNC4wOTMwMiAxMC44NzU3IDQuNDk4OTRMMTQuODk2NCA2Ljg2NjgxQzE1LjU1NTUgNy4yNzI3MyAxNi4wMTY5IDguMDE2OTEgMTYuMDE2OSA4LjgyODc1VjExLjk0MDhMMTkuNTEwMyA5Ljg0MzU1VjYuNzMxNUMxOS41MTAzIDUuOTE5NjYgMTkuMTE0OSA1LjE3NTQ4IDE4LjM4OTggNC43Njk1NkwxMC45NDE2IDAuMzA0NDRDMTAuMjgyNSAtMC4xMDE0OCA5LjQyNTYgLTAuMTAxNDggOC43MDA1NSAwLjMwNDQ0TDEuMTIwNTMgNC43Njk1NkMwLjM5NTQ4IDUuMTc1NDggMCA1LjkxOTY2IDAgNi43MzE1VjE1LjcyOTRDMCAxNi41NDEyIDAuMzk1NDggMTcuMjg1NCAxLjEyMDUzIDE3LjY5MTNMOC43MDA1NSAyMi4xNTY0QzkuMzU5NjkgMjIuNTYyNCAxMC4yMTY2IDIyLjU2MjQgMTAuOTQxNiAyMi4xNTY0TDE2LjA4MjggMTkuMTEyTDE5LjU3NjIgMTcuMDE0OEwyNC43MTc1IDEzLjk3MDRDMjUuMzc2NiAxMy41NjQ1IDI2LjIzMzUgMTMuNTY0NSAyNi45NTg1IDEzLjk3MDRMMzAuOTc5MiAxNi4zMzgzQzMxLjYzODQgMTYuNzQ0MiAzMi4wOTk4IDE3LjQ4ODQgMzIuMDk5OCAxOC4zMDAyVjIzLjEwMzZDMzIuMDk5OCAyMy45MTU0IDMxLjcwNDMgMjQuNjU5NiAzMC45NzkyIDI1LjA2NTVMMjYuOTU4NSAyNy41MDExQzI2LjI5OTQgMjcuOTA3IDI1LjQ0MjUgMjcuOTA3IDI0LjcxNzUgMjcuNTAxMUwyMC42OTY4IDI1LjEzMzJDMjAuMDM3NiAyNC43MjczIDE5LjU3NjIgMjMuOTgzMSAxOS41NzYyIDIzLjE3MTJWMjAuMDU5MkwxNi4wODI4IDIyLjE1NjRWMjUuMjY4NUMxNi4wODI4IDI2LjA4MDMgMTYuNDc4MyAyNi44MjQ1IDE3LjIwMzQgMjcuMjMwNEwyNC43ODM0IDMxLjY5NTZDMjUuNDQyNSAzMi4xMDE1IDI2LjI5OTQgMzIuMTAxNSAyNy4wMjQ0IDMxLjY5NTZMMzQuNjA0NSAyNy4yMzA0QzM1LjI2MzYgMjYuODI0NSAzNS43MjUgMjYuMDgwMyAzNS43MjUgMjUuMjY4NVYxNi4yNzA2QzM1LjcyNSAxNS40NTg4IDM1LjMyOTUgMTQuNzE0NiAzNC42MDQ1IDE0LjMwODdMMjYuOTU4NSA5Ljc3NTlaIiBmaWxsPSIjNzk1MEREIi8+CjxwYXRoIGQ9Ik00OS42NDIxIDI5LjEyMjVWMjEuNjUyNUM1MC40NDU5IDIyLjY3MjUgNTEuOTA0NiAyMy4yNDI1IDUzLjYwMTYgMjMuMjQyNUM1Ny45MTgzIDIzLjI0MjUgNjAuODM1OSAyMC4xNTI1IDYwLjgzNTkgMTUuNDQyNUM2MC44MzU5IDEwLjczMjUgNTguMTU2NSA3LjY0MjUgNTMuOTU4OCA3LjY0MjVDNTIuMDIzNyA3LjY0MjUgNTAuNTM1MiA4LjM2MjUgNDkuNjQyMSA5LjUzMjVWNy44ODI1SDQ1LjUwMzlWMjkuMTIyNUg0OS42NDIxWk01My4wOTU1IDE5LjY0MjVDNTAuODYyNyAxOS42NDI1IDQ5LjQwMzkgMTcuOTYyNSA0OS40MDM5IDE1LjQ0MjVDNDkuNDAzOSAxMi44OTI1IDUwLjg2MjcgMTEuMjEyNSA1My4wOTU1IDExLjIxMjVDNTUuMjY4NyAxMS4yMTI1IDU2Ljc1NzMgMTIuODkyNSA1Ni43NTczIDE1LjQ0MjVDNTYuNzU3MyAxNy45NjI1IDU1LjI2ODcgMTkuNjQyNSA1My4wOTU1IDE5LjY0MjVaIiBmaWxsPSJibGFjayIvPgo8cGF0aCBkPSJNNzAuMjMyNSAyMy4yNDI1Qzc0Ljg0NyAyMy4yNDI1IDc4LjE1MTYgMTkuOTQyNSA3OC4xNTE2IDE1LjQ0MjVDNzguMTUxNiAxMC45NDI1IDc0Ljg0NyA3LjY0MjUgNzAuMjMyNSA3LjY0MjVDNjUuNjE4MSA3LjY0MjUgNjIuMzEzNSAxMC45NDI1IDYyLjMxMzUgMTUuNDQyNUM2Mi4zMTM1IDE5Ljk0MjUgNjUuNjE4MSAyMy4yNDI1IDcwLjIzMjUgMjMuMjQyNVpNNzAuMjMyNSAxOS42NDI1QzY3Ljk5OTcgMTkuNjQyNSA2Ni40ODE0IDE3LjkzMjUgNjYuNDgxNCAxNS40NDI1QzY2LjQ4MTQgMTIuOTIyNSA2Ny45OTk3IDExLjIxMjUgNzAuMjMyNSAxMS4yMTI1QzcyLjQ2NTQgMTEuMjEyNSA3My45ODM3IDEyLjkyMjUgNzMuOTgzNyAxNS40NDI1QzczLjk4MzcgMTcuOTMyNSA3Mi40NjU0IDE5LjY0MjUgNzAuMjMyNSAxOS42NDI1WiIgZmlsbD0iYmxhY2siLz4KPHBhdGggZD0iTTg0Ljc5MTQgMjMuMDAyNVYxLjMxMjVIODAuNjUzM1YyMy4wMDI1SDg0Ljc5MTRaIiBmaWxsPSJibGFjayIvPgo8cGF0aCBkPSJNOTcuMjMwNyA3Ljg4MjVMOTQuMTA0OCAxNy42MzI1TDkwLjk0OTEgNy44ODI1SDg2LjcyMTZMOTIuMTY5NyAyMi44ODI1TDg5Ljk2NjcgMjkuMTIyNUg5My45MjYyTDk2LjAzOTkgMjIuOTQyNUwxMDEuNDg4IDcuODgyNUg5Ny4yMzA3WiIgZmlsbD0iYmxhY2siLz4KPHBhdGggZD0iTTExMy4xMSA5LjM4MjVDMTEyLjI3NiA4LjMzMjUgMTEwLjc4OCA3LjY0MjUgMTA4Ljk3MiA3LjY0MjVDMTA0LjU5NSA3LjY0MjUgMTAxLjk0NiAxMC43MzI1IDEwMS45NDYgMTUuNDQyNUMxMDEuOTQ2IDIwLjE1MjUgMTA0LjU5NSAyMy4yNDI1IDEwOS4wMzEgMjMuMjQyNUMxMTAuNzg4IDIzLjI0MjUgMTEyLjM2NSAyMi41ODI1IDExMy4xNCAyMS40NzI1VjIzLjQ1MjVDMTEzLjE0IDI0Ljg2MjUgMTEyLjIxNyAyNS44NTI1IDExMC45NjYgMjUuODUyNUgxMDQuMDU5VjI5LjEyMjVIMTExLjYyMUMxMTUuMDE1IDI5LjEyMjUgMTE3LjI3OCAyNy4wNTI1IDExNy4yNzggMjMuOTAyNVY3Ljg4MjVIMTEzLjExVjkuMzgyNVpNMTA5LjY4NiAxOS42NDI1QzEwNy40ODMgMTkuNjQyNSAxMDYuMDI0IDE3Ljk5MjUgMTA2LjAyNCAxNS40NDI1QzEwNi4wMjQgMTIuODkyNSAxMDcuNDgzIDExLjIxMjUgMTA5LjY4NiAxMS4yMTI1QzExMS45MTkgMTEuMjEyNSAxMTMuMzc4IDEyLjg5MjUgMTEzLjM3OCAxNS40NDI1QzExMy4zNzggMTcuOTkyNSAxMTEuOTE5IDE5LjY0MjUgMTA5LjY4NiAxOS42NDI1WiIgZmlsbD0iYmxhY2siLz4KPHBhdGggZD0iTTEyNy43MSAyMy4yNDI1QzEzMi4zMjUgMjMuMjQyNSAxMzUuNjI5IDE5Ljk0MjUgMTM1LjYyOSAxNS40NDI1QzEzNS42MjkgMTAuOTQyNSAxMzIuMzI1IDcuNjQyNSAxMjcuNzEgNy42NDI1QzEyMy4wOTYgNy42NDI1IDExOS43OTEgMTAuOTQyNSAxMTkuNzkxIDE1LjQ0MjVDMTE5Ljc5MSAxOS45NDI1IDEyMy4wOTYgMjMuMjQyNSAxMjcuNzEgMjMuMjQyNVpNMTI3LjcxIDE5LjY0MjVDMTI1LjQ3NyAxOS42NDI1IDEyMy45NTkgMTcuOTMyNSAxMjMuOTU5IDE1LjQ0MjVDMTIzLjk1OSAxMi45MjI1IDEyNS40NzcgMTEuMjEyNSAxMjcuNzEgMTEuMjEyNUMxMjkuOTQzIDExLjIxMjUgMTMxLjQ2MSAxMi45MjI1IDEzMS40NjEgMTUuNDQyNUMxMzEuNDYxIDE3LjkzMjUgMTI5Ljk0MyAxOS42NDI1IDEyNy43MSAxOS42NDI1WiIgZmlsbD0iYmxhY2siLz4KPHBhdGggZD0iTTE0Mi4wNjEgMjMuMDAyNVYxNC43MjI1QzE0Mi4wNjEgMTIuNzcyNSAxNDMuMzQxIDExLjM2MjUgMTQ1LjE1NyAxMS4zNjI1QzE0Ni44ODMgMTEuMzYyNSAxNDguMDQ0IDEyLjY4MjUgMTQ4LjA0NCAxNC41MTI1VjIzLjAwMjVIMTUyLjIxMlYxMy41ODI1QzE1Mi4yMTIgMTAuMTAyNSAxNTAuMDA5IDcuNjQyNSAxNDYuNjE1IDcuNjQyNUMxNDQuNTYxIDcuNjQyNSAxNDIuODk0IDguNTEyNSAxNDIuMDYxIDkuOTgyNVY3Ljg4MjVIMTM3Ljg5M1YyMy4wMDI1SDE0Mi4wNjFaIiBmaWxsPSJibGFjayIvPgo8L3N2Zz4=;" vertex="1" parent="1">
                    <mxGeometry x="330" y="61" width="153" height="32" as="geometry"/>
                </mxCell>
                <mxCell id="7" value="&lt;font color=&quot;#ff3333&quot;&gt;Mumbai&amp;nbsp;&lt;/font&gt;" style="text;html=1;strokeColor=none;fillColor=none;align=center;verticalAlign=middle;whiteSpace=wrap;rounded=0;" vertex="1" parent="1">
                    <mxGeometry x="423" y="40" width="60" height="30" as="geometry"/>
                </mxCell>
                <mxCell id="12" value="" style="shape=image;verticalLabelPosition=bottom;labelBackgroundColor=#ffffff;verticalAlign=top;aspect=fixed;imageAspect=0;image=data:image/png,iVBORw0KGgoAAAANSUhEUgAAANEAAADxCAYAAABVllLZAAAAAXNSR0IArs4c6QAAIABJREFUeF7tfQl4FdXZ/++SkNzsIRGQCLIvYvxoVYr/VrAF/VwQKqKiLIJABYWCQZQggiAioCwViYBFQUFEi2IRXGqrFfy+vwvaUgOyL4JBloTsezLf884wN5ObuffOcma5c2eex+eR3DNned/3N+ecd/XAfVwKuBTQRQGPrrfdl10KuBSACyIbC0FMzC1ccvKLKCtbgoqKNS6vbMorlzE2ZUyLFn/jYmJu8s2uru4wCguHoLY21+WZzXjmMsRmDElOzuHi4h4OOKuqqvcITC7fbMQ3lxk2YUZc3AQuKel5eDxJvhmdOdMwudatG/4/KgooKVmAkpInXf7ZgH8uEyxmQvPmvbiUlC2Iiurim0l5OYEEmDsXmD4deOMNYMIE4WcRTASk6uqTKC3NQmXlOy4fLeSjS3wLiZ+aupWLjb2jCXgGDwZycoC2bRsmV1gogOqFF4CkJCA+XviNwFRZuRtFRb9HXV2ey08L+OkS3QKiJyYu4hISZjQamY5utMv85S9A376BJ3XgADB6NPDVVw27kgimsrINKCq63+WpyTx1CW4iwb3eoVxy8jrZe8+aNcCDDyqfzPvvA7Rj+R/x6N9FRTNQVvacy1vl5NTV0iW0LvIpfbktl5a2Fc2bX9vk6DZ1KrBgAZCQoLSvxu0WLways5se8aqrD6O4eAKqqz91eayNtIrfcgmsmFTaGqakvM55vaOaHN369QNefhno3l1bv9K3zp4FsrKATZuagqmi4hNcuPDfLp/1kzlgDy5xDSJuQsLjXErKYtTVNQwgqqy3bwcGDmQ/8LffAiNHAvv3N9bi0RwqKl5CcfEkl9/sye66/bCmaUxMfy45eT2iotr5uhbBs2yZsGMY/dCONGJE0/tSbW0JSkoec12IGDPA/TIxJKi/q45o7xk1ClixAkhNZThYiK4qqjjMn+fBwoXyKvGSkvGoqdnj8p8BS1wiMiCinKsO7T6ZmcDGjUCvXgwG0djFiRPAlCnAtm1NVeLl5a4LkUayNnrNBZEOKgZz1dmyBRg6VEfnjF/dtQu4+25AtEdR92Sopcd1IdJHbBdEGugXylXn8WwOcbH2JC1pBF0XIg1MD/KKPTnNdo1Me1PjqsN0YIadlZUBs2YFdiEqKBgC4JQrGwpp7hJKIaECuepkZACbNwd31VE4hOnNyIWIvCR27nRdiPQQ3wVRCOoFc9VZtw4YM0YP+e3x7o4dwO23C3OReomTSrys7BnXhSgEm1wQBSSQca469oBO01ksXw5Mm+a6EKnljwsiGYoFc9VZuxbo2lUtmcOnvetCpJ5XLogkNLPCVUc9y8x5g1yI6Kiam+u6EIWiuAsiAEJWnZctddUJxSirfnddiEJTPuJBFMxVZ8kSoFWr0ER0eotgLkQUclFUdFdEuxBFLIjs7KpjV1C6LkTynIk4EIWTq45dwUQuRPfeC+TlNb4v0Xwj0YUoYkAUzq46dgWT60IkcCYiQOQEVx27Asl1IXI4iJzoqmNXMEVyFiJH7kSR4KpjVzAFciGi+To1C5HDQNSVS0vbZEhWHbsKrV3nFUkuRI4BkRZXHbJ/7M4txZ6Dlfj+SCV+PFeL88X1vFxektwMl7eMxlWdvehzVTx6Z2rMaWVXKTdhXuRCRGmQN2xwdhaisAeRFledb3LLsPa9Arz8/8sR7wHKOXmJot/ioj2oqOXQNrEZZgxrgbFDLjFB/Jw1hNOzEIUtiLS46hw4XolHlp/GR4er0SnBg5/LOXRIboYHbk7GlZ296NQ2Ft7YZrwEn82vwYHjVVi97QL+lVfLgyi/kkPHFlHY8mw7tG8T4yxJN2E1TnUhCksQBXLVGTsWWLpUPqvOktfO4LFNF9CtRZQPDMsmt0LfaxpKmQSSo13flmDM4tPwRntQWw/+/ZNvdbVtCLgJeNA8hBNdiMIKRFpddYbPOoG/7a1C63gP9hXV48WRaZh8X0tVgkC72NWTT/A7V2Elh5l3t1Ddh6oBHd7YSS5EYQEiPa46K988hxlvFPDCf7y4HluyL8Wt16doEtHO9xxEdDPajTjcc30iFk7J0NSP+1IDBZzgQmRrEOl11aGjQ7thh5DuFQT/xv+Kw5onGzKTqhHmE6er0fMPx3xgfGNaa9zRv2k2RtqxunfwqunabQshL3m4ZiGyLYhYuOqQQPeYdAI9U4Qj2OKxl2Dk7WmahPbWqcfw0f4qxDf34JcZ0fji5c6N+iGQzVx5Gm/ursAtPWLxp6w2LphUUjqUC5FdC5nZDkQsXXVIsDuMOYqe6VGorNV/BDtfWIsvvivF9Vcn4pLUaF5EaLd7du3PeGZbETISmiGvisN9v/Bi4eQ2rgZPJYjE5uGWhcg2IIqLG8UlJeXIFsDSk1WHlAqf/1CFVK9H953IXyY2bi/AI2vPg7TiVfVAj1ZRWD7lUtcwqxE8/q+FiwuRDUAUOKsOVVCYP197ASxxp+g38Sjyiup4IJF27sH/F4/xd6TJCjsdAclWFMwORCrvaSvP4tiFOqRcNBctndhK9o7ESJ4iuhu7uxBZCiItrjpapWl2zmnfkYv6KKwW3BR6tozmXXzI3WffuVqU13D8sezwm03tQL57z78r0S1JMMpe0znGPbppZYqK9+zsQmQJiLS46qigd8CmdKfZ/OEFbP6smPdC8Hf3ITcfUhr8rlc8Rg5s4VMM0L0nZ/NZPPZ2Ie/pUFQN3hXI/326Cz31h9auQoEFswL0YccsRKaCSIurjlH8IGCcLahBJV1mAKSnRvuUBdIx3/u0EJNWnuX/RE3J7WfWqHT88op4JMQ1w7FTVVj+5nl8daiKb3O0qB5fL23n3ouMYtzFfu3kQmQaiLS46hjMh6Ddk5Nq1oqf+R0rNcbDA+hP4wOryEVDbGk1h/t/6xpizeAdfQifW+TB3LnyWVvNykJkOIi0uuqYwQS5MejIN2vlad7DOyPWg7yyemQPTMacCW0C+sp9+EURRi0543Mr2vqovCHWqjU5fdxTp4BJk6wrZGYYiPS46ljFdAJQy2GHgWgPHyLRr3NMUKOpz0b0QTF/V6KjHAHOdQeyhoOBXIio8HNZ2WKUlmYbIu/MO9XrqmMN+RuPSh7fFBoRzMdOqY2IVOZHT1Uhv7AOifHNcFmr5sjsGu96gBvIaLNdiJiCKJCrzpAhQuHftm0NpJxJXYt3pf1n63xG1kB3pd4PHMHuvJrGM7u4yy0eod6T3KQlOmKYUC5ELAuZMQERS1cdu3JQaiPij25lHJ68LRlPjL806K4y4ZmTuPXXSfwORMfFFX8pwH9O1vg8HD55sZOiXYnGJ22g6G5kVzrZbV5muBDpApFRrjp2YwTNh45vE1af442x910b18TASl4MH/xPCf59pAolFfV8foZ7BqTIejEQsP7+nwre3jR3WPC4JNr57n36Jx60qOXcO5dG4TDShUgjiIx11dFIJ8NfExObSKNh6dhwc9YRnyqcHFDJa/xMOYf8CsEGRcqGMYPTeCMs9XHn48dx9EwtTpXWY83ElkE9y8n3jzzD0+Oa8f09OTgF8ye1MXytTh0gsAvRSRQXj0F19aeqMaH6hUCuOv37A6tXO7sAlpxg0a6y/bsKJMZ40Kl1NFZnX+bzu5MmRKF3r20VzfvweaPB7yzkwycX30RAE6uP0///85tiVFVzuKKT1/WGYIBu1i5EikFklasOA5oZ2oXoJU6DjB2QJLtLkB1p/LIzPNDIGEtPzuSmDqs+G9WuMrw4Jh3j7rxE0X3J0AU6uHNWLkQhQRQT059LTl7vFsAKIEwk+Hc8fgL/81Mt3+KWLjEYcVMK0lOjcPpcDf6+u4zP70De3mRHen54C0y6t1UTcFAY+x83FggG3ioOv7ksGq88cZm785gAYjkXIhqW40pQUvIYKirWBMVJwB+jolK55OS3ERd3E78MMliVl1PpDCBYVh0T1mzLIejo9tX35fjpnKDSfvd/y3y7TrBAPdqlJq84wysZ6KFkKksebqU5D4QtiRMGkwrkQiTIfvBCZrIgIledxMSHfUsnAJ05A/TpA6xZA/TqFQZUsXCK/K6yPp9XBpDDqlxqLjEH3s4j1bxvHoVmBLIdiUCj5ChPjstAgpuM1TDuSl2IkpKA+PiGoaqq3kNh4ZAmmGn0B9FVJzq6IRcbFXKiZ8sWYOhQw+buuI5J5U3pif1Tc5E275lX8rDo4xLBVeiigmHB5DZNbEBSoFHySEq2kjXETdVlhrDIuRCJ4/q7EPlAJHobREUJTenYRv+Rh+zj2Q3aIjMW4NQxXt16Hn98Jd+381Dskty9h44WT685zQON7kjkQU7xS2JKY4pjIgBS9qInxrV2czkYKDByLkQ0XE3NbhQU9Obx4wORGKpAIKLdZ/BgICfHGa46BtJYcdczV+Rh0dtFSL8kilcyBAonlwPa9HvTefU2ha3/64dyzFp7jk+8Qg8pK3Y+e5miTK50b6PHTc6vmG18Q6kLUevWwrt0Tzp/vqs8iEh5cOONdHzLR0WFF1FRUfB63Txq6sgu31pUPshlX6Xj38SlP/NG2ovpwGXV4NQzaQTbjzzC58AjMPXpGotNC9oHnKJUdU6NyOPilTmXu+pzBUytrKxEXV0d4uIqMX9+On8yIyCFBNGgQVQOIx+FhQ1XprQ0bfnaFMwzops08ckLogYXCSVG2/KJV/LrsHXGpQGTpPirzt0QduXiVlZWhqoqIWI5NjYWK1cmIDtbBYjeeAMgFJbT1nTxoY4SXNWQci6EaEk7068m/sgf8fLJJy9Evjo6VkxbfhIbvyznq1QcvFDHG2XldjY51fnqRy9tcuwjEFOI/OVtYt2d6SK/pOChP8XHx/OnscWLoR5EogwE6pSZNEVwR3TUWvr6Wdz2m6Sg9xqlSgl/1TnZqF4Zn96krpLow0dZXSkIkZxbj6/vFNFKilCbhi4QuWCyDuX+dyXyu5NTSvhU5zuKfZlYs29OChjW7r8Lkl/fztXKwjKso4ZxIxcUFDTqXO76wgRENEootBq3zMjqmXaUeX8+gzf/XelzBXr+nlRMH31RPSQhB+1S49bm8+3IaBsorJ12PWk8khh1S3+LVI2dmlMWMxCJvHPBZCyoRa8HGuXBvgmQM8ZKdylqR9Uv/jRZ3mWIB9rq8/hN++ZuqmONmwFzELlHPGNBRL3TzkF57fx3CalGT8xIFEjB4A80slGtnNI6Yn3z9Hz8DQORKEpKzpTGi52zR6B7z6L1DemQSWlAMUlyu1QToAVQMDibYo1Xp+boJkcXw0Hk3peMF0cKUR/14llem0ahEnIVKORKvZCCQc5xVQQaVc1YO825u5Ne8IicNQVE7hHPeCCJka5y6bykabyCKRikQOuUIiTmJ68HqqnUKq25Y+xFeo5ulu1E/gOz+gIYL5rhPYK01AutJNi9Rwo0aktg8yXmv+iPd21Gczw0OKWJbSmcqGTE9cLUnUhKbP+vAf3muhCxE0e+pOaE43wZTMpERJGzcmpwsgs9vPRnvqYS+eYReF4cl47f/DKRT+afX1iLjTsuYNUnJbyWL7+SQ+/2zfHhCx1DTpaOhe//s8gW1dSN/HBbBiJXJR5SBpk0IBX24N+lNolJklMwBDPCium8vNGCX14wLwZfyZlNF4RsROfr8PXqyy2xObE+utnmOCc3ESO/FEyk0SGdSAWc7j0/lwc2wopLJpX6DQ8f4/9J3uFtUqOaFHgW25IT7KOrz6KytqHkzEuPml9q0wzwWKJYUCKH/mdW0clPybtum9AUEKud0w6hJG+DeFeioxzlwyOvh3ef69BEyaC25EzomWpvYbYMWX6ckyOVmV8R7awK3zfJk/vIyeqgdxW53OJrpwRJ5yUpOUOJJEOlUTaCeladZmwJIve+ZISIKeuTjm5Tnv+pwTevTMiuKgcKuZgkUocHKw6tbBbqWln90bU1iERSWvWFUcfK8G5NXg+rtpzBY5su+Ly9A8Ux0U72yMqzfOovSjzZMrmZJX53dtHwhgWIRPE0Qscf3qLPbvZivBHFEZE9KFQ6LwpBp6dFYjNQrofS8noUltShsroe+UV1KCiu4xP4/3iuFhMHtwiaV1zLKuz0YQ0rEPHaITeqVovMKX6H7kL+jq3SLEOUTYg0b/RQDBOpvAsrheQoVIJT9inj0PPyaKx/IkO3mttO4BHXGnYgco94ivGguyGB580P8hul8yLt3MDrEhHv9eDQyWq8/UUpDyRKpLJ1dhu0Sm/OZx+imklxzaPRLJpNWjU7fzzDFkQumHRjJGQHPoPs7gqQTck/VEI0wFJHlOtOrpJFyEEUNLD7MT7sQeQe8RRIoc4mdMTzryfLF4MecYSvuXS8uB4fzctQlONOzVTseHSTm78jQCQuzM5bvhrhCYe2pN5e+JcLoPRc9Ozd1JXZtMONj44CkXvEYybHITvyDDzApywmJcPMu9nkAQ838IS9YiEklwHY/SytZA12beO7L31ejnPbu+ouvBwuRzdLjnMff7wTvXtnWhbmEK5fN7uCx39ecipxNXMPZ/AYuhPRDvDaa+9ixoyVqKnZ4xk27CFu8+aX1NCWeVt/ZrlZW5mTWFWHTvq4Mb8T0c5zyy03eKiiXl1doadPnzu4efOycPPN/VQR2ajGTvjyGUUbs/p12jGbOYiIQOnp6Z5Jk2ZyjzwyAV26BK5KYBbT/Mexi8+VVeu3alynfsCYg4gYtHz5WqxevQkHDnxqFb8UjeukI4WiBVvUyOlHaUNARLyKifkFFi+ejKys8T7WETHtWD3CqV9IizDjGzZSPlKGgejw4RPo2rWDJz8/n6MEJOIxLzv7We6pp7JkC4RRGyuTlbhgYgc7p917glHGMBDRoPPnL8eOHTvx5Zdb+TnQMW/atD/wSof169di5MjGFZMnT34CnTt3arR7sWOrsp4i5eupjBrqW0Xih8hQEBELoqNbQAqYvXsP4c47J+Dgwc883br9jnv33TW48krBZUTcvQ4dOs5ZrZBwwaQOQJFML8NBRKAZN+5x324ksmbjxncwatQjAE41siPR7rV58wfYu/cTdVw0qHUkflnVkDKSwSPSyXAQBWMIMeD551dhzpxpnqefXsbNnp3FN/d4umHDhoVNjntqmMu6bSSd8ZXSzv3ACJSyFEQis+gYV1VV7TvW0e6VmdnNp5RQylSj27lfXYHCLMBDOR2+21+CKzrH6fa7M5rvofq3BYjkJjlz5kLs3XsQ27atC7UG039nIUSmT5rBgCw/IsNnneAzCsV7AMrX0KtjDH6dGY/O7WLQs3Oc6RmD9JCHKYjWrwdatgQGDtQzJYB2IrobvfXWKs9HH33O2cVlyH9VkQQmlsdZikWa+9YFPnmk+FBmVTFrKlVMT2/u4XN+X9vNi2uuiMMVnby2rWTOFETLlwPTpgGDBwNLlgBdVcZpkd/doEFTeKdVIi6pwnfs+Ktt/O7kPg0sv876Pj3GvM36QyEm2u+ZHhV0wrX1QG29kAClqBqouFiZ4pcZ0eibGYcrO3nRvUMsOraNtfw4yBREhYXA3LnACy8I9Jk5E5g1C0hIUMZg0Y7Us+eN3MyZE3HXXQNljbLKejO3ldPAZMR6KPFJ5qhDiG7mQbSQcUv1I4KLdi2qYEEPHQev7+nFVZ296NXNi8szYk09DjIFkUiRPXuAKVOAnTuFv6xbB4wZo4xedJQT7UbK3rBXK9ZfbrNXZwR4xDVQYpPt31X4QspZrs3/OEg1a2+4IhZXd/OiS7tYQ4+DhoBIJM777wMjRgAlJUCPHsDLLwN9+7IknX37YnmHMGuVRn4AKDH+hNXn+F3DjId2LHooS2tVvXAcjIv2oEerKN9xsHdmPLp38OqejqEgEmcnDkL/HjIEWLECaNtW99xt34GRX3WWizcSPDRPpfcglmsK1BeBi4BFR8Hf9/Ji0wL9oTqmgIgWdPascEd69VVheXR3ejybTWI/M4ivZwy7hgKYBfLeDxxBcUW95nuQHtoHepeOf6xy5ZkGInEx334LTJoEfPWV8Jc33gCGDzeCTPbr0+gvvpoVm3XcNPIepGa9/m3DGkTiYjZtEu5L9GRmAmRjuuYaPWQJn3fNEmA5ipgJZKqaN2TpGT7Bo90e24KIFAndugHduysjGak8n1vk4Y929IwaJdiXWrVS9n44tzLrKCXSyOwjJaXU6jD+mC0BRDSxLYhEY6ta+9CJE0BWFrBVCDvCsmXCvyPhMXpnMBusIs+uf/AIThfW8cnu7fjYFkQEhmHDGu47auxDROhdu4AHHwT27weSkoT70qBBdmQB+zkZASarjo0zV+Th9X+WGmIPYkV524JIXKBe+xDdjx54QOitXz9BJd6rFyvy2bcfVruGEYBUSjWqonfbwp9te4wT12F7ENFE6b6z4k8eZGcL01ZrHyJX+dmzKaRceH/qVEEtnpqqlJ3h204rmLS+x4pSVCmi/cgjaJvYzFbqbLn1hQWIxImTfWj6dGDDBuEvau1Dhw4J72/bJrz/0kvAQw+xYru9+1G6o1gNHpGKdA86V2wve1AgDocViMRF+NuHtmwBhjbOUxJUov/xD+D++4G8PCAjA3j9dWDAAHuDgNXsgt1tlAKN1VwC9TM75zRWfVLSKLzB6DH19B+WIBIXLLUP9ekD5OSosw+tWgU8/LDQm9aQCz3Et+pdud2mqqrKN534+HjLPN53fVuCfnPybH8PkvIurEFEC6H7DtmDRPvQ2LHAwoXK7UN6Qy6sAgKLcc2294SaM92Deow5GjY7kLge24KIVNRXXaX88q/XPqQn5CKUcNj5d3FXskNli1unHsPB0zWa7EHkDKo1rkgvf2wLItHYarZ9SK9KXS9DzH7fLiBa8toZLNpapGkXEuN/yJuaQhRimwGJMYJh1gxg2RZEpDy49lpBpMgfjjRpauKH/O1DFH+kxoXIX6VOoG6v39PdbIyEHM8OIKLiXr969CRChXnLLYYKJa+Z2BIjb0/jwyR+OFqJwyer8N3BSnx1qApHy4QcCwQsbzT9x97rwbYgIoL524fIQ5tcxZXGD9F95+mntduH9KrUQ0qwDRpYDSLicZf7DmnySCis5PiI02BxPOR392NeFfYcrMT3Ryrxxb5K7Cuq5zMDpcZ4eGBRiLmeXcvWIBJlTK8wk31o4kTg04vVWdTah2hXpJD03FxhRk4KubAaRJTuinYMtTuEmB8hd0NXxMWq211IGbXvWBkOHK/C3qOV2JVbgf1n6/iIVQKWWMVc6TcuLEAkLsZfmM22D+lVqStlipntrASRXLorpWvfl1+Hr5e2Q+9MhZlrQnRMO+KPp6vwTW45Zrx6XhWQwgpEIh30CrMe+5B/yIValbpSITGrnVUg4u9BM05psgedKecwd1gLTL6vJXMy0S6VeM8BVfMKSxAR5VjYhx59tCHEPFJDLqwAkZ50VySwfboGvwfpQRbZqlqOOBIZIBIJZbV9KNxDLqwAEd2DPv+hStWRSeQ3KRMObuimOP+gWkA5CkSkDFCT9dRfmN98U10KYr32IalKnVyQyMk1HKJqzQaRnnRXpFX7enFbZvcgOYA5CkSkyqbYn82btduH+vcX7Eta7UNqVerSkIvt29WBWO0Xk1V7M0GkJ90V3YOyh6Rg+ujWrJYu24+jQESe1jfeKKxTrTBbbR8iFyJ6wiH4z0wQXTn8ELS459A9qFub5vjwhY6GAog6dxSIaEGnTgEzZgCkjaNn0SJgyiPK88uxtg+pVakbznEGA5gFIj3prmgX2r++kynJ5h0HIlFGWNiHKKXWmTPa4of0qtQZyLphXZgBIj3prugetPPpDPS9JskwGkg7diyIxEX6C/OaNeqOTHrsQ3pV6qZIgIZBjAYRn+5qzFFNfnGkiRs7IAnzJ7XRsDJtrzgeREQWEuYFC4SYIXrUGjvpvuTahxoEzGgQUdrfgjL16a7oHtQmNQpfvNxZGxo0vhURIBJpQ/YhKrki5ktQm1+OLv8TJrgpuYwEkdZ0V6R8OFVaj31/7mhqbSBHKhaUfExY2IcoNJweLSVbKMSCwEgPpeRSE3KhZH1GtzEKRHrvQR/MvBS3Xp9i9PKb9O+onYiOXWpSWkmF2Wz7kF6VuumSIhnQCBCJaX+7JalPd0X3oPt/m4iFUzIsIYujQETGVqr2oKb+kF5h1htyceCAkPhEa8iFFVJjBIi0pruie1BaQhS+WWfuPcix2jmpJk6tfchfmEmLRymFlT4sVOrhkpKLNYgo3dWr/yhR7RdH96CDJfU4vtb8e5BjQUQLo/sOfdnFYDi1xs4dO4Bx46yzD+lRqSsFvN52LEGkJ+0v2YO2Ptoad/S3Ni2to45zUuHQax8Sk55Qn6REoCOi0nwJeuOH9KrU9YIk1PusQKQn7S/dg26/Og5rnmwXarqG/+5YEBHl9NqH/EtUmh0/ZNeUXKxApDXdlehLt3dTV8MBomQAR4NIJIB/Pm299iG1+RKkKvXWrYFXXlHnrS0NudCSxUiJIKhpwwJEetJdUZj3/jUdmFTeVrPuQG0jAkTi4qX5tLUI8zvvAHfdJfSmpUSlNH7IbJU6C2ER+2ABIq3FiKXprliuSU9fEQUikVCs7UN0f1IaTKe3ZItelboeYWEJIi0qbaPDvLXSJiJBRMTyz6dN5SXnzFFurJWGXNBd6dln1bHAapW6utk2bs1iJ9ICIgpvOPGGcWHeWmniKBDRjlBcDDyerTx+SK8w031n927tNV7piBluIRdWgujkW+pzxmkFh9L3HAUi0cZC9VYpH7ea+kNS+xD5w61caW79IX+VOlWtUJovwuyQCxdEjeHlKBDR0qy0Dyn9cgVqp9c+pDeLkdL5uyByOIhoeVbbh5QKY6B2rEMu1GYxCjV/F0QRACJxiazjh9Tah0IJY6jfSaVOVcxLSrRVudCjhQw2NxdEEQQicams7UNqS7aEAkuw362uciE3NxdEEQgiVvah5xZ5fCUq1abk0gMkepfsQ6SGF7MYqa2CzjLkwgXmjGmPAAAPjUlEQVRRBIOItX2I+lMbcqEXTHpDLvR6qdP8XRA15qKWUi9hm9BeunQW9iEx5EKLSl0vmPSm5JKq1C9cUG5kdkHUmHNaUxw7AkQiKejLfN99wuVdS74EvSp1PWBioYWkI6IatyUXRA0c41McTzqhqhqE+DbLUi8U0Z2dDZA/aF3dYZw/35WvYOYrY9aixd+4mJibUF4ODBokVJxT8xw+fAJt2lyChITghZ2kX+YhQwTBUho/pFeY1axHrq1Z9iFxbPc4J1DCLimODQPRxx/vRE7OOrz//npPnz53cF9+uTWkrMrFD6nxidOrUg85wRANyAXp3nuBvDzhq6Q25ELp+C6IADulOGYOItp5una9CcChi7tZW+7pp6dh9uwspTICqbHz4EHl7jfiAKRSnzwZ2L/fWGEOtCCj7EPuTiRQQG9qL9YpjpmDqKCgAOnp6fzuM29eFm644Vfwer2KASRtSPE/VGVCaeVx/0GMFuZgi9KbxShY35G8E+lN7WVEimPmICLmb9z4Dh54YC5qar7XBB6WL+kNudA7F71aSLnxIxlEWlMcU0h7y+RmhqQ4NgRE/KXvypswfvwwZGWNDyiHtGt9800ubr65n15ZDfm+EcIcclBJAxb2oUg/zulNcXxiY2dDSr0YBiLhbtTBc+jQca5Ll/ay8jZ48AO84oHjOI4a0BdW69FPqUCzFGalY0rb6cliFMkg0pvay8gUx4aBiBi+fPlarF69CQcOfNpE3ui3adP+4Fm27M+cuFtNnvwErrvuGowcOVSLfKp6h4UwqxpQ0tg/5KK0FKqKAkfacU6MF7JrimNDQURy4/F0w4YNCxsBg9Tft9xyg2fQoDHctm3rfOK1d+8hZGZ28+Tn53NpaWlaZVTxe3pTcikeKEBD0kLedhvwr38pzxEh7tjl5eWIjY0NaX8LNEet4eFWRLZqmStPJ5NKvRgOIgJGr16/RW3tTzw/Be1dL0RHp6Kw8MsmQjBz5kJ89tnXUGJX0ivE4vvkDzdpUkPJFrNDLtSuI5J2Ir2pvY6v72R4qRfDQSQCR9xZrrtuCL766j1Pbu5B7sor5ZP/RUe3wI4dfzVF4SAVYL0pudSCQWv7SAHRrm9L0G9Onia3HjNTHJsCIqmwdO/eHxMnDg+qtROPdaWlpVwodyGtghjoPf8UxGaHXChZTySAiO5BPcYcRet4nweaEtLwbcxOcWw6iJRSgpQM588XYvPml5S+wrSd3iroTCfj11kkgEhviuPd67ogLlY9ALXwzZYgop1o1ap1yMlZ6Pnoo885M+xIgYgnrXJhRciF3LycDiJd96CieuzPaW9qimNbgYi0dtOmzce+fX/3REWlcnV1hZ4NG7ZwZqi8Q32BpCmI+/QB1FZBD9W/mt+dDKJvcsvwq0dPaqpcblWKY1uBaP785ZgzZ5qnefNe3OLFkzF69J0wQ9WtVICtDrkQ5+lUENF9tMt9h1QXG7PiHiSVGVuBiCZGu5GVxzclgNJb5ULJGMHaOBVEWsK8iU7kF0fPv18z7x5kaxDpFTAz39ebxUjrXJ0Iole3nscfX8lHh+RmqslidakXVTtR794ACY77NKaA2SEXVoGIPADWz2iDKzrHMXXk5MO8JxzXdA+iMO/nRqdh7JBLLBPLadOESOyQ4eFRUUIeBNJQbd4M9O1r2ZxtObB/yMXUqcCCBep84pQuzCoQ0fxIaCtqOX7H6NUxBr/OjEevbl5cnhGryTOA7kHXPnCYP5JFq9yErC71Qsf68eOBnTsFANEjm2MhOTmHi4t7GAQioZFQlJjyIKxerc7nS6mQhHM7acgFpfOaMYP9aqwEkXQ1JMSVtUBVPZBfwyEj1oP/atccA66OR5d2sbiikxeXt4kNaq+hMO+//6cC3mj1Nh0aP3eD+VUqpDWuaFOJj2+gSlXVeygsHNI4UQn9HBPTl0tOfhUxMV18rWlXov+MEhT2omduj+RCRA6uDz3Efly7gMh/ZeIFv7Sa44FFO1ZctAe92zfHLzrH4spOXnTvEIueHRN4r3Wt6a5oXLoHfb20HXpnBk+Aw5r6UlOHuPsIm8tJlJZmobLyHd/XQPazEBc3gUtKeh7R0UmNdiX6x7ZtQjYg9zGeAnYFUaCVE7gIWPQUVgvA6tgiCgVldZp2IDpSZg9JwfTRF89QxpMc/nV/pUOWlS1GaWl2E8wE3VtTUl7nEhJG+foRj3hkhHztNaB7dxNWFcFDhBuI5Fil5Q5E/dARrlub5vjwhY6mSACdJiZOBLZuFfQBgY5ucpMJeUAlj4KUlE/g9V7b5Ihn5KXaFMrZfBAngEgric0seSmqrv3BQ8qDoqK7UFOzJyhOQoJIJILXO5RLTFyOmJh2PrpQ3jV6yDXmwQe1kst9LxAFIhVEFN7AOt2VHI3ffx8YPFj4RXrv4bgSlJQ8hoqKNYrwoaiRdAJJSc9wSUmzmhzxMjJclTjrz0EkgsiMexBpVkePFoIzpeDhj5GVG1BUdL8qXKhqLBWS1NStXHz8HU3ARCrxFSu055BjLYjh3F+kgcjoMG9SWc+aBbzwQtN7T03NbhQV3QRyhlYrM6pfkA5ADqQpKVtkVeJU1+epp9ROx20vpUAkgYgUEKdK62FUuiupt0kolbVaKdQFInEwf5U4/V28L23Zoq66uNoFOLl9JIGI7kFGpLvyz5sulZfy8gUoKXlSNwZ0dyCdFHk9JCY+3OSIZ3VcTrgCLVJARGHerNP+UsTylCnaVNZq5YUpiGhwUoknJ7+NuDhKdi88otfD2LHA0qXqCl2pXZCT2kcCiIxI+ztvHvhypVpV1mpliDmIxAnExNzCJSe/3EglLoKJChob4SajdvF2b+90EBGADpbU4/jajpqcWv35J83ipEdlrVYuDAOROJFAKnH6SpB1eMAAtVOOnPZOBxGrdFfSEj3+KuuKipdQXDzJUDk3tHOpuAdSiZOxi1TiSqvlRQ6ErCt8bAaN6R50/28TsXBKhubhpGma/Y9u1dWf4MKF/zZFvk0ZRKRSdHQml5y8TtaFSG2pe82UD6MXnboT0TEuOa4ZvlnXWTM3Vq0CqCA2Pf4q6+LiB1Fd/ZFpsm3aQFJqxcWN4pKScnxe4vSbqxJvKk8sQER1fvKK6pAY41EdDKdZwkO8SOENWtP+ksr67ruFWDcpeIRgUjYqa7XrtgRE4iQDqcQzM6mAGNCrl9rlOKs9CxBRLM/eo5XYlVuB/WfrfLE/KTEUYSqwX22kqR4qa013RSpryqNOoTj+9x5pgJyeuWl911IQiZOmyuVSlbgYchHpKnEWIJIKBoVo/3i6Cj8crcS3P1Rg98FK/OdkDfKqOKQ39yC2GeCNpv+MEQstaX+l6Z7lVNaFhUNQW5trzIQVosrSwaVzjInpzyUnr3dV4hKisAZRIJmg+qj7jlTgyMlq/G9uOfYcqwbtGBRUJwKLdi09O5YYV6Qm7a9VKmuF2PE1sw2IxBklJDzOpaQs9k1Q3JUiUSVuFojkhIYSzR87VYXvD1Xgq70V+O5INfadq+WbpsYIYqPmnkXqbKVpf0llPXIkkJvb9Ohmhso67EEkLiBQVG3//sCrr0aGStxKEMkJkngc/Ca3HAdOVOGzPeX8PYuSlwQ7DtKu9uK49JDpruyisnYMiISFtOXS0rbKqsRnzgRmP8WZVhFALWFZtLcbiEIdB/ceqcR3Byvx7ZFq3iObjoOUxOT3vbzYtEC+nq/YZ3CV9RhUV39qu1OTOHfbTkzKsGAqcbtXu9MDpnABkdwa6Z71Y14V9hysxLg7Lwn4saMkoRSDRi5h/irroqIZKCt7zvYyavsJShmUmLiIS05uSPAm3pd69BBU4tdco0dk7fduOIMoFDVPnABI+/rpp2yiS0ONZ+TvYQUikRCBVOKjRgFLljgn0aQTQUT3qvnzPFi4UD66tKBgOIBDYSWXYTVZ6dckWKLJZcuArCwjvz3m9O00EG3aBIwYIdCuqZf1JFRUbAhLeQzLSUtFmFTiCQlPyiaa3L4dGDjQHIE3YhSngIiqtpPKev/+8FBZq+Vl2INIiUqccol3lS9grpZeprYPdxBRQsTp04ENG5oe3cz0sjaaaY4BUSiVOB3v5s83pnqDUUwKZxBRCRIqReJ/dKOEiMXFE2ytslbLT4eBSFg+JZqkkAsxlzj9TfQSX7cOGDNGLZmsaR+OICKV9Y03NgUPeVmHi8paLbcdCSKRCOGuEg8nEMnV8BH5oCUholpBtrK9o0EkEjZQVO3w4ULls1atrGRB4LHDAUTSItH+XtaUELGgYAiAU46WM0cvTiqe4Vh7ye4gcqrKWu0nNWJAJBImnFTidgVRMJV1oBo+agUznNpHHIhCqcTtVHvJbiAilTVpOWkHsjIxiN0AFrEgIkZERWVwKSl/tW3tJTuBKFgNn+Lisaiu3hWxshSxC5d+zYLVXrJSJW4HEO3YAdx+e1OVNdXwKSt7Jiy8rI3euVwQSShst9pLVoKIavhQ4TZp2flIUVmrBZ0LIhmKBau9RC5EZqnErQBR6Bo+v0ddXZ4rNxK5cYkR4LMTrPbSokXAjIawJrUfLsXtzQaRmrLzihcRAQ1dEIVgcrDaS5QDbdAg46TELBAFq+ETiSprtRx1QaSQYsFqL732GtC9u8KOVDQzGkR6ys6rWIbjm7ogUsHiYLWXpk4FFixg6yVuJIj0lp1XQTbHN3VBpIHFcrWXRC/xNWsErRaLxwgQsSo7z2J9TunDBZEOThqtEmcJItZl53WQzXGvuiBiwNJgtZdycoC2bbUNwgJElBCRytawLjuvbUXOfMsFESO+kko8KWkt09pLekFkZNl5RmRzRDcuiBizMZhKfMsWYOhQ5QNqBZEda/goX3X4tXRBZBDPgqnESfmgpPaSWhBJa/j4e1lbXcPHIDLbolsXRAayIZhKXEntJaUgClXDp6joLtTU7HF5bRCvXcIaRFhpt3Iqcco9Tf+99BLw0EPyk1AConCp4WMCmS0bwgWRiaQPVHuJsoFSYv4BAxpPJhiIrC47byLZbD+UCyILWBRIJe5fe0kOROFaw8cCMps2pAsi00jtP1BXLi1tU8jaSwUFBYiPj4fX64Wdys5bRjYbDuyCyGKm+NdeEsvF0LToiHfvvfn47LN0PhG8ncrOW0w2Ww3vgsgm7BBV4gQi8SHQkKravwAW/e6qrG3COAAuiOzDC34mVHspJuamgLMSEiKGXw0fm5GZ6XRcEDElJ5vOYmL6c8nJ6xEV1c7XISUGKSl5DBUVa1yesSEzs15chjAjJfuOxESTlMu6uHiSyyv2JGbSo8sYJmR0O4lkCrggimTuu2tnQoH/A1I7aQ7RVk5nAAAAAElFTkSuQmCC;" vertex="1" parent="1">
                    <mxGeometry x="366.25" y="277.88" width="76.5" height="88.21" as="geometry"/>
                </mxCell>
                <mxCell id="13" value="" style="whiteSpace=wrap;html=1;shape=mxgraph.basic.document;fillColor=#bac8d3;strokeColor=#23445d;" vertex="1" parent="1">
                    <mxGeometry x="515" y="67" width="100" height="100" as="geometry"/>
                </mxCell>
                <mxCell id="14" value="&lt;font color=&quot;#333333&quot;&gt;Oracle.sol&lt;/font&gt;" style="text;html=1;strokeColor=none;fillColor=none;align=center;verticalAlign=middle;whiteSpace=wrap;rounded=0;fontColor=#FF3333;" vertex="1" parent="1">
                    <mxGeometry x="535" y="97" width="60" height="30" as="geometry"/>
                </mxCell>
            </root>
        </mxGraphModel>
    </diagram>
</mxfile>